<svg version="1.1" xmlns="http://www.w3.org/2000/svg" viewBox="0 0 1580.4517272724722 800.7741075682804" width="1580.4517272724722" height="800.7741075682804">
  <!-- svg-source:excalidraw -->
  
  <defs>
    <style class="style-fonts">
      @font-face {
        font-family: "Virgil";
        src: url("https://excalidraw.com/Virgil.woff2");
      }
      @font-face {
        font-family: "Cascadia";
        src: url("https://excalidraw.com/Cascadia.woff2");
      }
    </style>
    
  </defs>
  <rect x="0" y="0" width="1580.4517272724722" height="800.7741075682804" fill="#ffffff"></rect><g stroke-linecap="round" transform="translate(381.47391764322913 10) rotate(0 251.20001220703125 28.800003051757812)"><path d="M14.4 0 C147.17 -1.59, 279.48 -2.64, 488 0 C496.82 -3.03, 501.53 3.85, 502.4 14.4 C499.53 25.18, 499.2 34.98, 502.4 43.2 C500.25 54.62, 499.39 59.49, 488 57.6 C318.2 58.31, 145.5 56.41, 14.4 57.6 C8.33 56.32, -1.7 51.9, 0 43.2 C2.22 30.39, -0.09 19.58, 0 14.4 C-1.13 5.33, 5 -0.58, 14.4 0" stroke="none" stroke-width="0" fill="#ff8787"></path><path d="M14.4 0 C110.42 1.85, 205.22 0.96, 488 0 M14.4 0 C160.62 -0.15, 306.21 0, 488 0 M488 0 C496 1.33, 501.25 5.94, 502.4 14.4 M488 0 C499.74 -1.83, 503.76 5.94, 502.4 14.4 M502.4 14.4 C501.98 26.36, 502.79 35.8, 502.4 43.2 M502.4 14.4 C503.04 22.73, 501.51 33.45, 502.4 43.2 M502.4 43.2 C500.86 51.35, 497.36 58.6, 488 57.6 M502.4 43.2 C500.35 53.44, 499.51 58.87, 488 57.6 M488 57.6 C304.04 57.1, 120.82 56.71, 14.4 57.6 M488 57.6 C340.11 58.07, 193.03 58.28, 14.4 57.6 M14.4 57.6 C4.05 58.13, 1.06 51.64, 0 43.2 M14.4 57.6 C4.47 56.28, 1.81 51.64, 0 43.2 M0 43.2 C-1.53 32.91, -1.45 23.97, 0 14.4 M0 43.2 C-0.95 33.25, -0.36 24.01, 0 14.4 M0 14.4 C-1.86 3.04, 3.18 -1.29, 14.4 0 M0 14.4 C-1.05 5.44, 4.32 1.57, 14.4 0" stroke="#1e1e1e" stroke-width="2" fill="none"></path></g><g transform="translate(465.83576456705737 25.931109110514313) rotate(0 148.9404296875 11.5)"><text x="0" y="0" font-family="Helvetica, Segoe UI Emoji" font-size="20px" fill="#1e1e1e" text-anchor="start" style="white-space: pre;" direction="ltr" dominant-baseline="text-before-edge">Focus Question: What is Scrum ?</text></g><g stroke-linecap="round" transform="translate(823.5493589884309 258.2000849857344) rotate(0 67.54096984863281 29.836044311523438)"><path d="M14.92 0 C52.08 -2.94, 89.94 -0.85, 120.16 0 C131.48 0.82, 133.46 1.98, 135.08 14.92 C132.43 26.55, 136.38 36.43, 135.08 44.75 C137.24 52.06, 129.34 61.21, 120.16 59.67 C82.14 57.94, 35.36 58.32, 14.92 59.67 C8.12 59.33, 2.41 56.88, 0 44.75 C-1.11 37.7, 0.22 29, 0 14.92 C-0.45 7.09, 3 -0.31, 14.92 0" stroke="none" stroke-width="0" fill="#a5d8ff"></path><path d="M14.92 0 C48.02 2.67, 81.19 1.99, 120.16 0 M14.92 0 C51.74 -0.3, 89.59 -0.39, 120.16 0 M120.16 0 C131.97 -1.59, 136.27 5.96, 135.08 14.92 M120.16 0 C131.36 0.61, 135.37 4.41, 135.08 14.92 M135.08 14.92 C135.44 26.1, 136 39.47, 135.08 44.75 M135.08 14.92 C134.06 20.87, 134.72 28.78, 135.08 44.75 M135.08 44.75 C133.3 55.26, 131.77 60.77, 120.16 59.67 M135.08 44.75 C137.1 56.97, 129.97 58.56, 120.16 59.67 M120.16 59.67 C93.29 58.32, 66.26 57.53, 14.92 59.67 M120.16 59.67 C85.02 60.76, 51.15 59.91, 14.92 59.67 M14.92 59.67 C4.69 58.52, 1.58 53.69, 0 44.75 M14.92 59.67 C5.13 58.38, -0.07 52.75, 0 44.75 M0 44.75 C0.79 38.97, -0.12 29.58, 0 14.92 M0 44.75 C-0.86 36.47, -0.75 29.31, 0 14.92 M0 14.92 C-0.92 5.53, 4.55 1.37, 14.92 0 M0 14.92 C-0.43 4.46, 6.53 -0.63, 14.92 0" stroke="#1e1e1e" stroke-width="2" fill="none"></path></g><g transform="translate(868.8588835245637 276.53612929725784) rotate(0 22.2314453125 11.5)"><text x="22.2314453125" y="0" font-family="Helvetica, Segoe UI Emoji" font-size="20px" fill="#1e1e1e" text-anchor="middle" style="white-space: pre;" direction="ltr" dominant-baseline="text-before-edge">team</text></g><g stroke-linecap="round" transform="translate(817.3943841256405 578.4050530075028) rotate(0 69.72677612304688 39.5)"><path d="M19.75 0 C42.71 1.29, 61.29 -2.52, 119.7 0 C133.91 -3.32, 140.56 4.43, 139.45 19.75 C141.97 30.95, 139.04 48.99, 139.45 59.25 C142.87 68.96, 132 82.53, 119.7 79 C96.41 78.21, 69.23 80.73, 19.75 79 C4.94 78.86, -1.3 71.29, 0 59.25 C-0.49 48.94, -2.02 34.07, 0 19.75 C2.02 8.38, 4.51 2.65, 19.75 0" stroke="none" stroke-width="0" fill="#ffec99"></path><path d="M19.75 0 C59.65 -1.2, 99.08 -2.13, 119.7 0 M19.75 0 C57.34 -1.37, 93.66 -0.08, 119.7 0 M119.7 0 C133.95 0.53, 139.71 6.09, 139.45 19.75 M119.7 0 C134.9 0.37, 140.6 6.94, 139.45 19.75 M139.45 19.75 C138.1 29.16, 141.38 40.33, 139.45 59.25 M139.45 19.75 C138.52 29.02, 140.24 38.29, 139.45 59.25 M139.45 59.25 C141.2 74.39, 132.75 78.03, 119.7 79 M139.45 59.25 C138.48 72.13, 130.89 79.27, 119.7 79 M119.7 79 C92.55 79.51, 65.73 77.63, 19.75 79 M119.7 79 C86.92 77.85, 55.21 77.92, 19.75 79 M19.75 79 C6.72 77.87, -0.06 70.72, 0 59.25 M19.75 79 C4.91 77.14, -1.8 73.05, 0 59.25 M0 59.25 C-0.97 45.01, -0.58 29.78, 0 19.75 M0 59.25 C-0.14 51.16, 0.11 43.2, 0 19.75 M0 19.75 C-0.37 6.14, 7.94 -0.54, 19.75 0 M0 19.75 C1.39 4.69, 6.47 -0.5, 19.75 0" stroke="#1e1e1e" stroke-width="2" fill="none"></path></g><g transform="translate(825.9834649361874 594.9050530075028) rotate(0 61.1376953125 23)"><text x="61.1376953125" y="0" font-family="Helvetica, Segoe UI Emoji" font-size="20px" fill="#1e1e1e" text-anchor="middle" style="white-space: pre;" direction="ltr" dominant-baseline="text-before-edge">Sprint </text><text x="61.1376953125" y="23" font-family="Helvetica, Segoe UI Emoji" font-size="20px" fill="#1e1e1e" text-anchor="middle" style="white-space: pre;" direction="ltr" dominant-baseline="text-before-edge">Retrospective</text></g><g stroke-linecap="round" transform="translate(569.5418497721354 738.308554284589) rotate(0 58.960609436035156 26.232776641845703)"><path d="M13.12 0 C38.9 -0.42, 63.15 2.59, 104.8 0 M13.12 0 C33.87 -0.19, 53.67 -0.7, 104.8 0 M104.8 0 C115.31 0.32, 118.92 4.68, 117.92 13.12 M104.8 0 C113.09 1, 119.53 2.62, 117.92 13.12 M117.92 13.12 C116.71 18.58, 119.15 22.73, 117.92 39.35 M117.92 13.12 C119.01 22.7, 118.08 29.83, 117.92 39.35 M117.92 39.35 C117.07 47.84, 111.83 52.7, 104.8 52.47 M117.92 39.35 C117.41 48.46, 112.12 53.16, 104.8 52.47 M104.8 52.47 C72.67 53.18, 38.31 51.84, 13.12 52.47 M104.8 52.47 C82.64 51.44, 60.32 51.16, 13.12 52.47 M13.12 52.47 C2.92 50.85, -1.56 48.64, 0 39.35 M13.12 52.47 C5.51 52.05, -1.85 46.9, 0 39.35 M0 39.35 C-1.68 30.43, -1.21 23.84, 0 13.12 M0 39.35 C-0.13 30.53, 0.73 21.88, 0 13.12 M0 13.12 C1.21 2.72, 4.28 -0.43, 13.12 0 M0 13.12 C-1.93 3.81, 3.77 0.88, 13.12 0" stroke="#1e1e1e" stroke-width="2" fill="none"></path></g><g transform="translate(584.6010920206705 753.0413309264347) rotate(0 43.9013671875 11.5)"><text x="43.9013671875" y="0" font-family="Helvetica, Segoe UI Emoji" font-size="20px" fill="#1e1e1e" text-anchor="middle" style="white-space: pre;" direction="ltr" dominant-baseline="text-before-edge">user story</text></g><g stroke-linecap="round" transform="translate(1035.8144476756765 445.8558025594471) rotate(0 54.87874348958326 30.36063639322913)"><path d="M15.18 0 C33.5 2.65, 50.07 3.01, 94.58 0 C102.05 -0.77, 111.3 8.47, 109.76 15.18 C108.35 19.67, 108.73 30.71, 109.76 45.54 C109.42 58.07, 106.87 59.07, 94.58 60.72 C71.6 60.47, 46.98 59.82, 15.18 60.72 C7.18 58.74, -0.31 57.69, 0 45.54 C2.69 35.8, 1.28 25.79, 0 15.18 C-1.46 4.81, 6.12 -2.53, 15.18 0" stroke="none" stroke-width="0" fill="#b2f2bb"></path><path d="M15.18 0 C32.84 0.45, 54.66 0.35, 94.58 0 M15.18 0 C41.98 0.35, 67.51 0.35, 94.58 0 M94.58 0 C104.3 0.87, 111.16 3.54, 109.76 15.18 M94.58 0 C102.79 2.02, 107.99 3.4, 109.76 15.18 M109.76 15.18 C110.47 25.6, 111.01 34.43, 109.76 45.54 M109.76 15.18 C109.32 27.16, 108.88 39.5, 109.76 45.54 M109.76 45.54 C109.31 55.98, 103.46 61.33, 94.58 60.72 M109.76 45.54 C111.05 57.46, 103.84 61.33, 94.58 60.72 M94.58 60.72 C65.41 62.18, 37.53 60.74, 15.18 60.72 M94.58 60.72 C74.5 59.24, 55.1 60.32, 15.18 60.72 M15.18 60.72 C6.05 60.36, -1.61 54.62, 0 45.54 M15.18 60.72 C4.56 59.97, -2.14 53.63, 0 45.54 M0 45.54 C0.75 38.48, 1.56 31.88, 0 15.18 M0 45.54 C0.4 36.28, -0.25 28.45, 0 15.18 M0 15.18 C-1.68 4.58, 4.53 0.76, 15.18 0 M0 15.18 C0.52 4.02, 3.15 0.67, 15.18 0" stroke="#1e1e1e" stroke-width="2" fill="none"></path></g><g transform="translate(1041.7722927277598 464.71643895267624) rotate(0 48.9208984375 11.5)"><text x="48.9208984375" y="0" font-family="Helvetica, Segoe UI Emoji" font-size="20px" fill="#1e1e1e" text-anchor="middle" style="white-space: pre;" direction="ltr" dominant-baseline="text-before-edge">developers</text></g><g stroke-linecap="round" transform="translate(672.8554416313114 577.7621547165313) rotate(0 57.600006103515625 28)"><path d="M14 0 C41.86 -1.71, 76.54 2.47, 101.2 0 C107.07 -0.87, 118.73 3.39, 115.2 14 C114.74 23.49, 117.25 26.51, 115.2 42 C115.06 50.03, 109.4 56.53, 101.2 56 C76.68 53.83, 47.6 57.83, 14 56 C6.46 53.93, 2.65 53.71, 0 42 C-1.6 32.66, 0.92 21.3, 0 14 C1.1 6.07, 7.62 3.46, 14 0" stroke="none" stroke-width="0" fill="#ffec99"></path><path d="M14 0 C45.85 -0.22, 76.15 1.29, 101.2 0 M14 0 C41.35 0.3, 69.79 -0.9, 101.2 0 M101.2 0 C108.88 1.76, 113.66 3.22, 115.2 14 M101.2 0 C110.26 1.15, 113.15 5.31, 115.2 14 M115.2 14 C117.33 24.61, 114.39 34.61, 115.2 42 M115.2 14 C114.74 22.21, 114.34 30.4, 115.2 42 M115.2 42 C116.33 52.89, 109.79 56.53, 101.2 56 M115.2 42 C116.42 50, 110.2 54.68, 101.2 56 M101.2 56 C67.04 56, 33.44 54.6, 14 56 M101.2 56 C82.57 56.06, 62.14 55.72, 14 56 M14 56 C4.23 55.35, -1.86 49.57, 0 42 M14 56 C2.8 54.51, -1.05 51.97, 0 42 M0 42 C-0.63 35.54, -0.74 27.59, 0 14 M0 42 C-0.83 35.67, -0.25 30.2, 0 14 M0 14 C0.45 3.76, 3.01 0.58, 14 0 M0 14 C-2.12 5.37, 3.29 1.16, 14 0" stroke="#1e1e1e" stroke-width="2" fill="none"></path></g><g transform="translate(697.667361797327 582.7621547165313) rotate(0 32.7880859375 23)"><text x="32.7880859375" y="0" font-family="Helvetica, Segoe UI Emoji" font-size="20px" fill="#1e1e1e" text-anchor="middle" style="white-space: pre;" direction="ltr" dominant-baseline="text-before-edge">Sprint </text><text x="32.7880859375" y="23" font-family="Helvetica, Segoe UI Emoji" font-size="20px" fill="#1e1e1e" text-anchor="middle" style="white-space: pre;" direction="ltr" dominant-baseline="text-before-edge">Review</text></g><g stroke-linecap="round" transform="translate(544.7872325999606 580.9752066139665) rotate(0 54.000030517578125 28.399978637695312)"><path d="M14.2 0 C32.92 -2.22, 62.08 -2.64, 93.8 0 C101.56 -0.9, 111.15 4.4, 108 14.2 C108.17 23.32, 107.18 35.57, 108 42.6 C108.2 51.49, 102.81 58.92, 93.8 56.8 C76.09 55.53, 57.43 59.98, 14.2 56.8 C5.61 57.77, 1.5 50.61, 0 42.6 C0.95 35.68, 2.8 29.42, 0 14.2 C0.9 5.43, 1.82 -2.82, 14.2 0" stroke="none" stroke-width="0" fill="#ffec99"></path><path d="M14.2 0 C39.4 0.3, 64.28 -1.1, 93.8 0 M14.2 0 C40.73 1.48, 68.14 -0.12, 93.8 0 M93.8 0 C103.03 1, 106.22 5.29, 108 14.2 M93.8 0 C105.18 1.27, 110.01 7, 108 14.2 M108 14.2 C107.61 20.83, 108.1 30.46, 108 42.6 M108 14.2 C108.39 23.95, 107.45 32.4, 108 42.6 M108 42.6 C109.06 50.91, 102.98 55.65, 93.8 56.8 M108 42.6 C109.81 50.91, 103.42 55.5, 93.8 56.8 M93.8 56.8 C68.54 54.66, 47.06 57.21, 14.2 56.8 M93.8 56.8 C71.14 56.06, 47.99 55.5, 14.2 56.8 M14.2 56.8 C3.11 55.51, -0.92 52.62, 0 42.6 M14.2 56.8 C4.25 58.37, -0.43 51.56, 0 42.6 M0 42.6 C-1.57 32.06, -0.36 20.04, 0 14.2 M0 42.6 C0.3 34.32, -0.76 27.23, 0 14.2 M0 14.2 C-1.84 5.35, 3.54 1.01, 14.2 0 M0 14.2 C1.14 5.94, 6.11 -1.69, 14.2 0" stroke="#1e1e1e" stroke-width="2" fill="none"></path></g><g transform="translate(560.4230053050387 586.3751852516618) rotate(0 38.3642578125 23)"><text x="38.3642578125" y="0" font-family="Helvetica, Segoe UI Emoji" font-size="20px" fill="#1e1e1e" text-anchor="middle" style="white-space: pre;" direction="ltr" dominant-baseline="text-before-edge">standup </text><text x="38.3642578125" y="23" font-family="Helvetica, Segoe UI Emoji" font-size="20px" fill="#1e1e1e" text-anchor="middle" style="white-space: pre;" direction="ltr" dominant-baseline="text-before-edge">meeting</text></g><g stroke-linecap="round" transform="translate(1016.0080552100148 136.29495488165733) rotate(0 92 28.79999542236328)"><path d="M14.4 0 C55.52 0.09, 103.2 0.65, 169.6 0 C181.61 2.18, 182.35 4.66, 184 14.4 C184.04 21.42, 183.38 31.71, 184 43.2 C182.02 52.49, 181.22 59.39, 169.6 57.6 C132.85 60.41, 95.84 57.99, 14.4 57.6 C4.55 58.66, -2.53 53.9, 0 43.2 C0.47 34.14, -3.34 20.86, 0 14.4 C1.44 7.13, 3.93 -3.19, 14.4 0" stroke="none" stroke-width="0" fill="#a5d8ff"></path><path d="M14.4 0 C69.58 1.71, 121.49 -1.35, 169.6 0 M14.4 0 C74.47 1.62, 133.88 1.4, 169.6 0 M169.6 0 C180.86 1.1, 185.75 6.77, 184 14.4 M169.6 0 C179.06 -1.11, 183.02 4.51, 184 14.4 M184 14.4 C184.35 19.33, 184.64 27.86, 184 43.2 M184 14.4 C184.42 24.71, 183.75 35.6, 184 43.2 M184 43.2 C185.58 51.79, 179.34 56.47, 169.6 57.6 M184 43.2 C183.93 50.85, 177.53 55.74, 169.6 57.6 M169.6 57.6 C134.8 56.76, 99.68 57.93, 14.4 57.6 M169.6 57.6 C127.28 55.59, 86.12 56.51, 14.4 57.6 M14.4 57.6 C4.38 58.97, -0.37 52.36, 0 43.2 M14.4 57.6 C6.36 56.97, 1.39 50.9, 0 43.2 M0 43.2 C-0.42 34.17, 0.83 26.65, 0 14.4 M0 43.2 C-0.68 36.17, -0.36 29.03, 0 14.4 M0 14.4 C1 5.85, 6 -1.47, 14.4 0 M0 14.4 C-0.49 5.79, 6.98 -2.21, 14.4 0" stroke="#1e1e1e" stroke-width="2" fill="none"></path></g><g transform="translate(1074.6535630225148 153.5949503040206) rotate(0 33.3544921875 11.5)"><text x="33.3544921875" y="0" font-family="Helvetica, Segoe UI Emoji" font-size="20px" fill="#1e1e1e" text-anchor="middle" style="white-space: pre;" direction="ltr" dominant-baseline="text-before-edge">product</text></g><g stroke-linecap="round" transform="translate(182.69180828255992 415.81514738726645) rotate(0 71.19999694824219 31.199981689453125)"><path d="M15.6 0 C48.59 2.36, 75.11 0.05, 126.8 0 C135.9 -1.13, 142.93 5.4, 142.4 15.6 C140.35 24.14, 144.35 35.11, 142.4 46.8 C140.33 59.85, 139.58 63.28, 126.8 62.4 C90.19 62.64, 51.56 62.69, 15.6 62.4 C6.6 65.35, 3.46 58.1, 0 46.8 C1.9 39.17, -0.41 23.68, 0 15.6 C0.88 8.05, 8.43 -0.25, 15.6 0" stroke="none" stroke-width="0" fill="#eaddd7"></path><path d="M15.6 0 C58.49 -0.62, 96.42 0.68, 126.8 0 M15.6 0 C55.34 0.24, 94.3 0.68, 126.8 0 M126.8 0 C137.08 -0.97, 141.55 4.95, 142.4 15.6 M126.8 0 C135.22 0.27, 141.89 5.56, 142.4 15.6 M142.4 15.6 C144.06 22.28, 143.03 31.51, 142.4 46.8 M142.4 15.6 C143.14 22.65, 142.42 30.15, 142.4 46.8 M142.4 46.8 C142.34 55.51, 135.74 60.79, 126.8 62.4 M142.4 46.8 C140.6 57.83, 138.34 61.98, 126.8 62.4 M126.8 62.4 C101.75 60.3, 76.24 60.53, 15.6 62.4 M126.8 62.4 C100.42 63.39, 74.28 62.49, 15.6 62.4 M15.6 62.4 C6.55 61.86, 1.21 55.55, 0 46.8 M15.6 62.4 C5.09 61.9, -1.93 56.64, 0 46.8 M0 46.8 C-1.02 36.6, 0.46 27.88, 0 15.6 M0 46.8 C0.68 37.01, 0.79 25.43, 0 15.6 M0 15.6 C-0.43 6.06, 7.1 -1.92, 15.6 0 M0 15.6 C-0.55 7.45, 4.38 -1.09, 15.6 0" stroke="#1e1e1e" stroke-width="2" fill="none"></path></g><g transform="translate(196.0841880433021 435.5151290767196) rotate(0 57.8076171875 11.5)"><text x="57.8076171875" y="0" font-family="Helvetica, Segoe UI Emoji" font-size="20px" fill="#1e1e1e" text-anchor="middle" style="white-space: pre;" direction="ltr" dominant-baseline="text-before-edge">transparency</text></g><g stroke-linecap="round" transform="translate(29.077974716217113 415.0008950529446) rotate(0 68.26608399733846 31.051341325008366)"><path d="M15.53 0 C40.04 -1.66, 63.12 1.79, 121.01 0 M15.53 0 C52.92 -1.52, 90.01 -1.16, 121.01 0 M121.01 0 C129.64 0.23, 136.09 5.49, 136.53 15.53 M121.01 0 C129.93 0.7, 137.83 6.97, 136.53 15.53 M136.53 15.53 C135.46 23.39, 135.46 33.41, 136.53 46.58 M136.53 15.53 C136.52 22.43, 135.83 30.22, 136.53 46.58 M136.53 46.58 C134.97 57.48, 132.35 61.74, 121.01 62.1 M136.53 46.58 C134.68 55.73, 130.86 61.35, 121.01 62.1 M121.01 62.1 C97.86 60.33, 77.86 60.83, 15.53 62.1 M121.01 62.1 C82.83 61.6, 43.91 61.04, 15.53 62.1 M15.53 62.1 C5.08 61.67, -1.68 56.44, 0 46.58 M15.53 62.1 C4.57 62.98, 0.52 55.89, 0 46.58 M0 46.58 C0.52 38.64, 0.92 34.1, 0 15.53 M0 46.58 C-0.4 36.06, 0.76 23.73, 0 15.53 M0 15.53 C-0.48 7.14, 4.47 -0.95, 15.53 0 M0 15.53 C-0.58 7.19, 4.96 1.54, 15.53 0" stroke="#ffffff" stroke-width="2" fill="none"></path></g><g transform="translate(52.31476183855557 434.55223637795297) rotate(0 45.029296875 11.5)"><text x="45.029296875" y="0" font-family="Helvetica, Segoe UI Emoji" font-size="20px" fill="#ffffff" text-anchor="middle" style="white-space: pre;" direction="ltr" dominant-baseline="text-before-edge">inspection</text></g><g stroke-linecap="round" transform="translate(348.83912211062466 416.21296413679016) rotate(0 70 30.800018310546875)"><path d="M15.4 0 C44.15 -0.56, 76.19 -2.09, 124.6 0 C134.55 2.02, 141.79 3.06, 140 15.4 C141.34 28.4, 138.91 38.15, 140 46.2 C141.06 53.94, 135.97 63, 124.6 61.6 C83.57 59.18, 38.34 63.53, 15.4 61.6 C7.46 60.73, -3.19 57.35, 0 46.2 C2.34 35.95, -0.53 23.52, 0 15.4 C-1.63 8.64, 6.72 2.27, 15.4 0" stroke="none" stroke-width="0" fill="#eaddd7"></path><path d="M15.4 0 C39.54 0.84, 63.46 -1.03, 124.6 0 M15.4 0 C42.02 0.25, 70.15 0.29, 124.6 0 M124.6 0 C133.63 0.61, 141.13 6.69, 140 15.4 M124.6 0 C134.01 0.61, 141.22 3.8, 140 15.4 M140 15.4 C138.82 24.33, 138.7 32.94, 140 46.2 M140 15.4 C138.99 22.31, 140.27 28.48, 140 46.2 M140 46.2 C138.39 55.43, 134.43 60.95, 124.6 61.6 M140 46.2 C137.86 54.44, 133 60.11, 124.6 61.6 M124.6 61.6 C98.21 61, 68.64 62.72, 15.4 61.6 M124.6 61.6 C94.77 60.48, 64.19 60.46, 15.4 61.6 M15.4 61.6 C4.61 62.36, 0.45 55.56, 0 46.2 M15.4 61.6 C3.22 62.27, -2.12 57.17, 0 46.2 M0 46.2 C0.89 40, -1.62 30.98, 0 15.4 M0 46.2 C-0.53 36.62, -0.65 24.61, 0 15.4 M0 15.4 C-0.5 6.88, 4.95 1.34, 15.4 0 M0 15.4 C1.39 4.08, 5.04 -0.83, 15.4 0" stroke="#1e1e1e" stroke-width="2" fill="none"></path></g><g transform="translate(372.13013773562466 435.51298244733704) rotate(0 46.708984375 11.5)"><text x="46.708984375" y="0" font-family="Helvetica, Segoe UI Emoji" font-size="20px" fill="#1e1e1e" text-anchor="middle" style="white-space: pre;" direction="ltr" dominant-baseline="text-before-edge">adaptation</text></g><g stroke-linecap="round" transform="translate(545.365963268074 87.6045840724992) rotate(0 74 25.20001220703125)"><path d="M12.6 0 C47.58 3.24, 84.98 -0.86, 135.4 0 C146.45 2.38, 148.88 5.17, 148 12.6 C148.87 18.68, 148.92 31.21, 148 37.8 C150.95 49.66, 144.7 51.1, 135.4 50.4 C110.82 50.42, 78.4 52.17, 12.6 50.4 C7.05 53.63, -0.25 49.03, 0 37.8 C-1.63 32.75, 1.59 22.95, 0 12.6 C-1.59 6.96, 6.6 -2.71, 12.6 0" stroke="none" stroke-width="0" fill="#ffc9c9"></path><path d="M12.6 0 C59.22 -0.78, 107.53 -1.65, 135.4 0 M12.6 0 C50.26 0.11, 89.71 0.59, 135.4 0 M135.4 0 C143.05 0.53, 149.06 3.04, 148 12.6 M135.4 0 C143.47 -1.32, 149.81 3.04, 148 12.6 M148 12.6 C146.16 18.88, 146.24 26.5, 148 37.8 M148 12.6 C147.32 20.33, 147.91 28.78, 148 37.8 M148 37.8 C146.14 44.44, 142.18 49.11, 135.4 50.4 M148 37.8 C146.95 46.84, 143.32 51.97, 135.4 50.4 M135.4 50.4 C100.32 52.44, 64.68 51.13, 12.6 50.4 M135.4 50.4 C100.96 50.48, 67.27 49.65, 12.6 50.4 M12.6 50.4 C2.54 50.98, -1.84 46.81, 0 37.8 M12.6 50.4 C2.82 51.56, 1.14 47.41, 0 37.8 M0 37.8 C1.04 30.62, -1.74 19.18, 0 12.6 M0 37.8 C-0.16 28.64, 0 18.41, 0 12.6 M0 12.6 C1.21 3.28, 4.12 -0.72, 12.6 0 M0 12.6 C-0.72 4.54, 4.33 -0.37, 12.6 0" stroke="#1e1e1e" stroke-width="2" fill="none"></path></g><g transform="translate(590.474361705574 101.30459627953044) rotate(0 28.8916015625 11.5)"><text x="28.8916015625" y="0" font-family="Helvetica, Segoe UI Emoji" font-size="20px" fill="#1e1e1e" text-anchor="middle" style="white-space: pre;" direction="ltr" dominant-baseline="text-before-edge">Scrum</text></g><g mask="url(#mask-XHigb2XilOkobKBPU-6NJ)" stroke-linecap="round"><g transform="translate(537.4622826613871 133.18734657846232) rotate(0 -67.01888624217261 14.497097767488768)"><path d="M-0.22 0.03 C-22.52 4.84, -111.64 24.02, -133.94 28.83 M0.13 -0.17 C-22.2 4.68, -111.89 24.4, -134.17 29.17" stroke="#1e1e1e" stroke-width="2" fill="none"></path></g><g transform="translate(537.4622826613871 133.18734657846232) rotate(0 -67.01888624217261 14.497097767488768)"><path d="M-108.8 13.16 C-115.28 17.12, -121.8 21.05, -134.17 29.17 M-108.8 13.16 C-117.25 18.56, -125.41 23.64, -134.17 29.17" stroke="#1e1e1e" stroke-width="2" fill="none"></path></g><g transform="translate(537.4622826613871 133.18734657846232) rotate(0 -67.01888624217261 14.497097767488768)"><path d="M-104.44 33.21 C-112.04 32, -119.68 30.77, -134.17 29.17 M-104.44 33.21 C-114.36 31.99, -123.96 30.46, -134.17 29.17" stroke="#1e1e1e" stroke-width="2" fill="none"></path></g></g><mask id="mask-XHigb2XilOkobKBPU-6NJ"><rect x="0" y="0" fill="#fff" width="771.3478384668726" height="261.97315182350013"></rect><rect x="454.9579813211444" y="136.0802492009812" fill="#000" width="31.123046875" height="23" opacity="1"></rect></mask><g transform="translate(454.9579813211444 136.0802492009812) rotate(0 15.485415098070092 11.604195144969871)"><text x="15.5615234375" y="0" font-family="Helvetica, Segoe UI Emoji" font-size="20px" fill="#1e1e1e" text-anchor="middle" style="white-space: pre;" direction="ltr" dominant-baseline="text-before-edge">is a</text></g><g mask="url(#mask-Dr2YT93JY0lzdYYwJEJ_y)" stroke-linecap="round"><g transform="translate(630.8023338975452 144.6893371266202) rotate(0 132.70834637205076 56.47869800992749)"><path d="M-0.74 0.36 C43.66 19.24, 221.86 94.7, 266.16 113.45 M1.07 -0.49 C45.4 18.05, 221.74 92.68, 265.57 111.82" stroke="#1e1e1e" stroke-width="2" fill="none"></path></g><g transform="translate(630.8023338975452 144.6893371266202) rotate(0 132.70834637205076 56.47869800992749)"><path d="M235.61 110.14 C244.54 111.91, 253.82 110.51, 265.57 111.82 M235.61 110.14 C245.26 110.28, 255.97 110.9, 265.57 111.82" stroke="#1e1e1e" stroke-width="2" fill="none"></path></g><g transform="translate(630.8023338975452 144.6893371266202) rotate(0 132.70834637205076 56.47869800992749)"><path d="M243.7 91.28 C250.41 98.24, 257.44 102.07, 265.57 111.82 M243.7 91.28 C250.81 97.53, 258.88 104.31, 265.57 111.82" stroke="#1e1e1e" stroke-width="2" fill="none"></path></g></g><mask id="mask-Dr2YT93JY0lzdYYwJEJ_y"><rect x="0" y="0" fill="#fff" width="996.2865184926486" height="357.2000849857344"></rect><rect x="727.4067308825968" y="189.4447110561773" fill="#000" width="72.275390625" height="23" opacity="1"></rect></mask><g mask="url(#mask-73Q7V7Z7groQF6LXUq_t7)" stroke-linecap="round"><g transform="translate(600.7384375982035 147.9926856678799) rotate(0 43.28150901416279 69.18882481342375)"><path d="M0.68 0.94 C15.3 23.87, 72.43 115.32, 86.99 138 M-0.43 0.38 C14.06 22.91, 71.13 113.11, 85.81 136.04" stroke="#1e1e1e" stroke-width="2" fill="none"></path></g><g transform="translate(600.7384375982035 147.9926856678799) rotate(0 43.28150901416279 69.18882481342375)"><path d="M62.02 117.76 C69.3 121.23, 73.93 127.39, 85.81 136.04 M62.02 117.76 C68.54 121.82, 73.58 126.19, 85.81 136.04" stroke="#1e1e1e" stroke-width="2" fill="none"></path></g><g transform="translate(600.7384375982035 147.9926856678799) rotate(0 43.28150901416279 69.18882481342375)"><path d="M79.34 106.75 C82.53 112.94, 83.04 121.72, 85.81 136.04 M79.34 106.75 C81.65 113.37, 82.5 120.41, 85.81 136.04" stroke="#1e1e1e" stroke-width="2" fill="none"></path></g></g><mask id="mask-73Q7V7Z7groQF6LXUq_t7"><rect x="0" y="0" fill="#fff" width="788.1791817763116" height="385.6693114476392"></rect><rect x="628.3357628122576" y="205.3309985577595" fill="#000" width="32.24609375" height="23" opacity="1"></rect></mask><g transform="translate(727.4067308825969 189.4447110561773) rotate(0 36.103949386999034 11.723324080370368)"><text x="36.1376953125" y="0" font-family="Helvetica, Segoe UI Emoji" font-size="20px" fill="#1e1e1e" text-anchor="middle" style="white-space: pre;" direction="ltr" dominant-baseline="text-before-edge">manage</text></g><g mask="url(#mask-mFQUgRyNlJ9hR2NgvoUQw)" stroke-linecap="round"><g transform="translate(696.7624632234185 132.1468951894497) rotate(0 153.6923618409823 16.34499729449328)"><path d="M0.15 -0.16 C51.42 5.25, 256.23 27.12, 307.5 32.58 M-0.11 0.36 C51.12 5.81, 255.96 27.44, 307.26 32.85" stroke="#1e1e1e" stroke-width="2" fill="none"></path></g><g transform="translate(696.7624632234185 132.1468951894497) rotate(0 153.6923618409823 16.34499729449328)"><path d="M278.15 40.1 C285.47 38.08, 293.12 36.67, 307.26 32.85 M278.15 40.1 C285.4 38.11, 292.48 36.31, 307.26 32.85" stroke="#1e1e1e" stroke-width="2" fill="none"></path></g><g transform="translate(696.7624632234185 132.1468951894497) rotate(0 153.6923618409823 16.34499729449328)"><path d="M280.3 19.69 C287.08 23.03, 294.16 26.99, 307.26 32.85 M280.3 19.69 C287.02 22.79, 293.57 26.09, 307.26 32.85" stroke="#1e1e1e" stroke-width="2" fill="none"></path></g></g><mask id="mask-mFQUgRyNlJ9hR2NgvoUQw"><rect x="0" y="0" fill="#fff" width="1104.3022697331762" height="264.88766557113166"></rect><rect x="791.0548274157975" y="137.01728038029069" fill="#000" width="118.955078125" height="23" opacity="1"></rect></mask><g transform="translate(791.0548274157974 137.01728038029069) rotate(0 59.39999764860346 11.474612103652301)"><text x="59.4775390625" y="0" font-family="Helvetica, Segoe UI Emoji" font-size="20px" fill="#1e1e1e" text-anchor="middle" style="white-space: pre;" direction="ltr" dominant-baseline="text-before-edge">aim to build a</text></g><g stroke-linecap="round"><g transform="translate(716.7524374688608 453.7273142054591) rotate(0 6.663695160765599 58.86529345316433)"><path d="M0.14 -0.09 C2.37 19.53, 11.14 98.03, 13.33 117.64 M0 0.25 C2.2 19.91, 10.99 98.25, 13.19 117.82" stroke="#1e1e1e" stroke-width="2" fill="none"></path></g><g transform="translate(716.7524374688608 453.7273142054591) rotate(0 6.663695160765599 58.86529345316433)"><path d="M-0.15 90.95 C3.46 98.63, 7.25 106.27, 13.19 117.82 M-0.15 90.95 C2.55 96.81, 5.65 102.51, 13.19 117.82" stroke="#1e1e1e" stroke-width="2" fill="none"></path></g><g transform="translate(716.7524374688608 453.7273142054591) rotate(0 6.663695160765599 58.86529345316433)"><path d="M20.24 88.66 C18.02 97.03, 15.99 105.32, 13.19 117.82 M20.24 88.66 C18.55 94.98, 17.26 101.18, 13.19 117.82" stroke="#1e1e1e" stroke-width="2" fill="none"></path></g></g><mask></mask><g stroke-linecap="round"><g transform="translate(707.8206884072778 449.9814188197169) rotate(0 -62.466390326210046 63.45987369399944)"><path d="M0.08 -0.68 C-20.75 20.52, -103.22 105.37, -124.05 126.59 M-1.33 1.58 C-22.41 22.95, -104.83 106.62, -125.01 127.6" stroke="#1e1e1e" stroke-width="2" fill="none"></path></g><g transform="translate(707.8206884072778 449.9814188197169) rotate(0 -62.466390326210046 63.45987369399944)"><path d="M-112.68 100.25 C-118.61 110.56, -123.86 119.52, -125.01 127.6 M-112.68 100.25 C-115.1 106.1, -119.11 111.76, -125.01 127.6" stroke="#1e1e1e" stroke-width="2" fill="none"></path></g><g transform="translate(707.8206884072778 449.9814188197169) rotate(0 -62.466390326210046 63.45987369399944)"><path d="M-97.99 114.58 C-109.42 119.47, -120.22 123, -125.01 127.6 M-97.99 114.58 C-103.52 117.33, -110.75 119.84, -125.01 127.6" stroke="#1e1e1e" stroke-width="2" fill="none"></path></g></g><mask></mask><g stroke-linecap="round"><g transform="translate(733.6934857006971 453.3470117762599) rotate(0 70.686978201719 61.551463608360876)"><path d="M-0.04 -1.02 C23.39 19.61, 117.2 102.19, 140.63 123.09 M-1.51 1.06 C22.28 21.87, 118.81 103.32, 142.89 124.12" stroke="#1e1e1e" stroke-width="2" fill="none"></path></g><g transform="translate(733.6934857006971 453.3470117762599) rotate(0 70.686978201719 61.551463608360876)"><path d="M114.78 113.63 C121.65 115.4, 130.35 118.51, 142.89 124.12 M114.78 113.63 C123.23 116.6, 133.02 120.23, 142.89 124.12" stroke="#1e1e1e" stroke-width="2" fill="none"></path></g><g transform="translate(733.6934857006971 453.3470117762599) rotate(0 70.686978201719 61.551463608360876)"><path d="M128.1 98.02 C130.79 104.57, 135.41 112.48, 142.89 124.12 M128.1 98.02 C132.26 106.07, 137.7 114.82, 142.89 124.12" stroke="#1e1e1e" stroke-width="2" fill="none"></path></g></g><mask></mask><g transform="translate(628.3357628122576 205.33099855775953) rotate(0 15.684183800108713 11.850511923544119)"><text x="16.123046875" y="0" font-family="Helvetica, Segoe UI Emoji" font-size="20px" fill="#1e1e1e" text-anchor="middle" style="white-space: pre;" direction="ltr" dominant-baseline="text-before-edge">has</text></g><g stroke-linecap="round" transform="translate(71.02834662906383 277.9178844245904) rotate(0 39.75409507751465 31.557374000549316)"><path d="M15.78 0 C27.22 1.37, 37.21 -1.24, 63.73 0 M15.78 0 C26.74 -0.73, 38.75 -0.49, 63.73 0 M63.73 0 C73.33 0.56, 79.09 6.63, 79.51 15.78 M63.73 0 C73.82 -0.51, 81.06 4.63, 79.51 15.78 M79.51 15.78 C78.81 25.48, 78.76 38.01, 79.51 47.34 M79.51 15.78 C78.75 26.74, 78.66 37.43, 79.51 47.34 M79.51 47.34 C78.31 58.87, 75.24 64.16, 63.73 63.11 M79.51 47.34 C80.89 56.17, 73.76 64.1, 63.73 63.11 M63.73 63.11 C46.76 62.29, 24.92 62.5, 15.78 63.11 M63.73 63.11 C45.75 62.98, 26.53 63.07, 15.78 63.11 M15.78 63.11 C4.63 63.41, 0.11 57.53, 0 47.34 M15.78 63.11 C4.97 64.47, -1.26 57.65, 0 47.34 M0 47.34 C1.31 37.42, 0.33 25.39, 0 15.78 M0 47.34 C0.42 35.86, 0.43 26.17, 0 15.78 M0 15.78 C1.64 7.18, 5.76 0.39, 15.78 0 M0 15.78 C-1.86 3.46, 6.18 1.49, 15.78 0" stroke="#1e1e1e" stroke-width="2" fill="none"></path></g><g stroke-linecap="round"><g transform="translate(998.777614436055 386.61734657901144) rotate(0 -16.481755659389762 26.41366806766584)"><path d="M0.14 -0.05 C-5.34 8.75, -27.59 44.04, -33.1 52.86 M-0.13 -0.32 C-5.5 8.5, -27.08 44.23, -32.59 53.15" stroke="#1e1e1e" stroke-width="2" fill="none"></path></g><g transform="translate(998.777614436055 386.61734657901144) rotate(0 -16.481755659389762 26.41366806766584)"><path d="M-26.67 23.74 C-28.06 29.84, -29.56 36.68, -32.59 53.15 M-26.67 23.74 C-28.55 31.42, -30.03 39.53, -32.59 53.15" stroke="#1e1e1e" stroke-width="2" fill="none"></path></g><g transform="translate(998.777614436055 386.61734657901144) rotate(0 -16.481755659389762 26.41366806766584)"><path d="M-9.15 34.42 C-14.43 38.17, -19.82 42.65, -32.59 53.15 M-9.15 34.42 C-15.68 39.2, -21.86 44.46, -32.59 53.15" stroke="#1e1e1e" stroke-width="2" fill="none"></path></g></g><mask></mask><g mask="url(#mask-xEhIQz0fa5ytZD5anG4Sq)" stroke-linecap="round"><g transform="translate(264.9658319440669 207.89564972124955) rotate(0 -77.36308879388963 32.890273514818986)"><path d="M-0.97 -0.62 C-26.79 10.26, -128.66 54.23, -154.37 65.07 M0.73 1.66 C-25.33 12.73, -129.85 55.82, -155.45 66.4" stroke="#1e1e1e" stroke-width="2" fill="none"></path></g><g transform="translate(264.9658319440669 207.89564972124955) rotate(0 -77.36308879388963 32.890273514818986)"><path d="M-133.31 46.16 C-142.13 52.62, -149.48 58.28, -155.45 66.4 M-133.31 46.16 C-138.63 50.59, -143.07 55.28, -155.45 66.4" stroke="#1e1e1e" stroke-width="2" fill="none"></path></g><g transform="translate(264.9658319440669 207.89564972124955) rotate(0 -77.36308879388963 32.890273514818986)"><path d="M-125.48 65.13 C-137 64.9, -147.09 63.92, -155.45 66.4 M-125.48 65.13 C-132.3 65.48, -138.4 66.16, -155.45 66.4" stroke="#1e1e1e" stroke-width="2" fill="none"></path></g></g><mask id="mask-xEhIQz0fa5ytZD5anG4Sq"><rect x="0" y="0" fill="#fff" width="519.070854478171" height="373.35841520156794"></rect><rect x="135.68187536451484" y="229.12703246140873" fill="#000" width="104.462890625" height="23" opacity="1"></rect></mask><g stroke-linecap="round" transform="translate(639.6925347856711 289.67742912342044) rotate(0 61.88529968261719 29.09835815429689)"><path d="M14.55 0 C51.08 -1.61, 89.77 1.6, 109.22 0 C121.2 -1.59, 126.53 7.25, 123.77 14.55 C120.73 22.01, 120.56 29.9, 123.77 43.65 C120.86 50.14, 116 57.69, 109.22 58.2 C79.19 55.17, 45.94 60.53, 14.55 58.2 C4.18 58.69, 2.83 56.38, 0 43.65 C-0.68 37.04, 0.82 32.58, 0 14.55 C-3.36 5.61, 3.64 -0.4, 14.55 0" stroke="none" stroke-width="0" fill="#a5d8ff"></path><path d="M14.55 0 C34.67 -1.65, 54.33 -1.42, 109.22 0 M14.55 0 C36.62 0.42, 58.92 -0.48, 109.22 0 M109.22 0 C120.27 -0.54, 124.98 3.2, 123.77 14.55 M109.22 0 C118.81 -0.5, 121.84 4.29, 123.77 14.55 M123.77 14.55 C122.98 20.85, 124.46 28.64, 123.77 43.65 M123.77 14.55 C124.09 24.7, 124.2 33.06, 123.77 43.65 M123.77 43.65 C123.34 54.2, 120.82 56.27, 109.22 58.2 M123.77 43.65 C123.22 55.6, 118.1 57.11, 109.22 58.2 M109.22 58.2 C84.53 59.32, 56.24 58.03, 14.55 58.2 M109.22 58.2 C84.3 58.17, 59.15 58.92, 14.55 58.2 M14.55 58.2 C3.75 58.02, 1.12 54.34, 0 43.65 M14.55 58.2 C3.53 59.89, 1.52 53.91, 0 43.65 M0 43.65 C-0.26 34.72, -1.53 25.23, 0 14.55 M0 43.65 C0.01 33.98, -1.05 23.14, 0 14.55 M0 14.55 C0.8 6.14, 4.37 -1.77, 14.55 0 M0 14.55 C0.56 6.67, 6.91 -0.16, 14.55 0" stroke="#1e1e1e" stroke-width="2" fill="none"></path></g><g transform="translate(971.1771385309601 356.66408369222984) rotate(0 23.986233253742682 24.46835706830818)"><text x="36.689453125" y="0" font-family="Helvetica, Segoe UI Emoji" font-size="20px" fill="#1e1e1e" text-anchor="middle" style="white-space: pre;" direction="ltr" dominant-baseline="text-before-edge">includes</text></g><g transform="translate(85.76779326907848 297.9752584251397) rotate(0 25.0146484375 11.5)"><text x="25.0146484375" y="0" font-family="Helvetica, Segoe UI Emoji" font-size="20px" fill="#1e1e1e" text-anchor="middle" style="white-space: pre;" direction="ltr" dominant-baseline="text-before-edge">rugby</text></g><g transform="translate(135.68187536451487 229.12703246140873) rotate(0 51.92086778566241 11.65889077465981)"><text x="52.2314453125" y="0" font-family="Helvetica, Segoe UI Emoji" font-size="20px" fill="#1e1e1e" text-anchor="middle" style="white-space: pre;" direction="ltr" dominant-baseline="text-before-edge">comes from</text></g><g mask="url(#mask-0FTIEDwd0olep5CRa0l26)" stroke-linecap="round"><g transform="translate(592.4695019533949 147.5073618871717) rotate(0 -41.605816403268875 34.70499604598951)"><path d="M-0.25 0.82 C-14.15 12.07, -70.18 56.65, -83.96 67.81 M1.82 0.2 C-12.21 11.6, -70.85 57.76, -85.03 69.21" stroke="#1e1e1e" stroke-width="2" fill="none"></path></g><g transform="translate(592.4695019533949 147.5073618871717) rotate(0 -41.605816403268875 34.70499604598951)"><path d="M-69.36 43.62 C-71.91 49.72, -77.7 57.95, -85.03 69.21 M-69.36 43.62 C-73.53 50.25, -78.59 57.21, -85.03 69.21" stroke="#1e1e1e" stroke-width="2" fill="none"></path></g><g transform="translate(592.4695019533949 147.5073618871717) rotate(0 -41.605816403268875 34.70499604598951)"><path d="M-56.58 59.68 C-62.42 61.66, -71.46 65.81, -85.03 69.21 M-56.58 59.68 C-64.33 61.82, -72.88 64.4, -85.03 69.21" stroke="#1e1e1e" stroke-width="2" fill="none"></path></g></g><mask id="mask-0FTIEDwd0olep5CRa0l26"><rect x="0" y="0" fill="#fff" width="776.2069874940812" height="315.5800238967938"></rect><rect x="534.4777123080519" y="170.04369289198274" fill="#000" width="32.24609375" height="23" opacity="1"></rect></mask><g mask="url(#mask-Q7h_ut6BN2F-h5pr8xL2J)" stroke-linecap="round"><g transform="translate(934.876002906121 324.2948916681784) rotate(0 60.28736887858173 56.83754909235954)"><path d="M-0.22 -0.27 C12.12 6.85, 53.37 24.44, 73.8 43.54 C94.24 62.64, 114.41 102.41, 122.38 114.33 M-1.8 -1.45 C10.48 5.77, 52.65 25.48, 73.28 44.91 C93.91 64.34, 113.9 103.27, 121.99 115.13" stroke="#1e1e1e" stroke-width="2" fill="none"></path></g><g transform="translate(934.876002906121 324.2948916681784) rotate(0 60.28736887858173 56.83754909235954)"><path d="M98.56 96.39 C104.79 103.01, 111.22 108.1, 121.99 115.13 M98.56 96.39 C102.81 100.27, 108.48 104.98, 121.99 115.13" stroke="#1e1e1e" stroke-width="2" fill="none"></path></g><g transform="translate(934.876002906121 324.2948916681784) rotate(0 60.28736887858173 56.83754909235954)"><path d="M116.09 85.71 C117.49 95.28, 119.04 103.35, 121.99 115.13 M116.09 85.71 C116.52 91.88, 118.38 98.9, 121.99 115.13" stroke="#1e1e1e" stroke-width="2" fill="none"></path></g></g><mask id="mask-Q7h_ut6BN2F-h5pr8xL2J"><rect x="0" y="0" fill="#fff" width="1156.5263052840028" height="539.6117526647371"></rect><rect x="971.1771385309602" y="356.6640836922297" fill="#000" width="73.37890625" height="23" opacity="1"></rect></mask><g transform="translate(671.0163110307883 307.2757872777173) rotate(0 30.5615234375 11.5)"><text x="30.5615234375" y="0" font-family="Helvetica, Segoe UI Emoji" font-size="20px" fill="#1e1e1e" text-anchor="middle" style="white-space: pre;" direction="ltr" dominant-baseline="text-before-edge">activity</text></g><g transform="translate(676.6854625590252 417.324093075088) rotate(0 36.689453125 11.5)"><text x="0" y="0" font-family="Helvetica, Segoe UI Emoji" font-size="20px" fill="#1e1e1e" text-anchor="start" style="white-space: pre;" direction="ltr" dominant-baseline="text-before-edge">includes</text></g><g transform="translate(534.4777123080518 170.04369289198274) rotate(0 16.38597324207427 12.168665041178464)"><text x="16.123046875" y="0" font-family="Helvetica, Segoe UI Emoji" font-size="20px" fill="#1e1e1e" text-anchor="middle" style="white-space: pre;" direction="ltr" dominant-baseline="text-before-edge">has</text></g><g stroke-linecap="round"><g transform="translate(335.48021898950157 360.61628232008724) rotate(0 -121.5655814232401 24.162749451567123)"><path d="M-0.43 -0.12 C-40.92 8.05, -202.56 40.85, -242.94 48.96 M0.28 -0.63 C-40.28 7.4, -202.87 39.89, -243.41 48.16" stroke="#1e1e1e" stroke-width="2" fill="none"></path></g><g transform="translate(335.48021898950157 360.61628232008724) rotate(0 -121.5655814232401 24.162749451567123)"><path d="M-217.81 32.53 C-225.61 36.79, -232.58 41.87, -243.41 48.16 M-217.81 32.53 C-224.83 36.69, -231.2 40.77, -243.41 48.16" stroke="#1e1e1e" stroke-width="2" fill="none"></path></g><g transform="translate(335.48021898950157 360.61628232008724) rotate(0 -121.5655814232401 24.162749451567123)"><path d="M-213.75 52.65 C-222.73 50.96, -230.9 50.09, -243.41 48.16 M-213.75 52.65 C-221.73 51.69, -229.13 50.64, -243.41 48.16" stroke="#1e1e1e" stroke-width="2" fill="none"></path></g></g><mask></mask><g stroke-linecap="round"><g transform="translate(387.5975135729053 379.44310497442206) rotate(0 29.540805457911688 15.912273428342132)"><path d="M-0.07 0.11 C9.83 5.39, 49.33 26.33, 59.15 31.62 M0.39 -0.08 C10.28 5.24, 49.14 26.67, 58.97 31.9" stroke="#1e1e1e" stroke-width="2" fill="none"></path></g><g transform="translate(387.5975135729053 379.44310497442206) rotate(0 29.540805457911688 15.912273428342132)"><path d="M29.3 27.47 C35.9 28.57, 41.87 28.97, 58.97 31.9 M29.3 27.47 C38.89 29.04, 48.94 30.5, 58.97 31.9" stroke="#1e1e1e" stroke-width="2" fill="none"></path></g><g transform="translate(387.5975135729053 379.44310497442206) rotate(0 29.540805457911688 15.912273428342132)"><path d="M39.09 9.43 C43.57 14.42, 47.43 18.72, 58.97 31.9 M39.09 9.43 C45.42 16.94, 52.25 24.34, 58.97 31.9" stroke="#1e1e1e" stroke-width="2" fill="none"></path></g></g><mask></mask><g stroke-linecap="round"><g transform="translate(1049.3598091949489 371.76673230816317) rotate(0 68.65881670674327 31.815654015519925)"><path d="M0.27 -0.54 C23.02 10.08, 113.54 53.38, 136.17 64.17 M-1.04 1.79 C22.1 11.99, 115.13 52.19, 138.36 62.23" stroke="#1e1e1e" stroke-width="2" fill="none"></path></g><g transform="translate(1049.3598091949489 371.76673230816317) rotate(0 68.65881670674327 31.815654015519925)"><path d="M108.41 60.46 C115.72 59.22, 125.39 59.52, 138.36 62.23 M108.41 60.46 C118.8 61.42, 128.81 60.75, 138.36 62.23" stroke="#1e1e1e" stroke-width="2" fill="none"></path></g><g transform="translate(1049.3598091949489 371.76673230816317) rotate(0 68.65881670674327 31.815654015519925)"><path d="M116.56 41.63 C121.7 45.56, 129.15 51.01, 138.36 62.23 M116.56 41.63 C124.14 48.86, 131.45 54.41, 138.36 62.23" stroke="#1e1e1e" stroke-width="2" fill="none"></path></g></g><mask></mask><g transform="translate(341.48833912098723 344.2415134827228) rotate(0 31.689453125 11.500000000000014)"><text x="0" y="0" font-family="Helvetica, Segoe UI Emoji" font-size="20px" fill="#1e1e1e" text-anchor="start" style="white-space: pre;" direction="ltr" dominant-baseline="text-before-edge">include</text></g><g stroke-linecap="round"><g transform="translate(472.7614258186859 285.251934500635) rotate(0 -43.66336924424775 24.877099333079784)"><path d="M-0.5 0.17 C-15.02 8.47, -73.15 41.67, -87.56 49.97 M0.23 -0.22 C-14.08 7.91, -71.94 40.95, -86.51 49.16" stroke="#1e1e1e" stroke-width="2" fill="none"></path></g></g><mask></mask><g stroke-linecap="round"><g transform="translate(705.6983335224531 355.42466347971043) rotate(0 4.109577830275043 31.55033272759178)"><path d="M-0.1 0.08 C1.31 10.6, 6.91 52.65, 8.32 63.12 M0.15 -0.02 C1.56 10.44, 6.88 52.36, 8.23 62.87" stroke="#1e1e1e" stroke-width="2" fill="none"></path></g></g><mask></mask><g stroke-linecap="round"><g transform="translate(353.85279401687274 377.29878734746893) rotate(0 -36.11781774959434 16.728804494389294)"><path d="M0.14 0.15 C-11.87 5.66, -60.14 27.65, -72.24 33.22 M-0.13 -0.02 C-12.15 5.51, -60.29 27.96, -72.38 33.48" stroke="#1e1e1e" stroke-width="2" fill="none"></path></g><g transform="translate(353.85279401687274 377.29878734746893) rotate(0 -36.11781774959434 16.728804494389294)"><path d="M-51.09 12.34 C-55.89 17.77, -61.69 22.41, -72.38 33.48 M-51.09 12.34 C-58.4 19.8, -65.73 26.65, -72.38 33.48" stroke="#1e1e1e" stroke-width="2" fill="none"></path></g><g transform="translate(353.85279401687274 377.29878734746893) rotate(0 -36.11781774959434 16.728804494389294)"><path d="M-42.48 30.97 C-49.37 31.94, -57.24 32.1, -72.38 33.48 M-42.48 30.97 C-52.79 32.02, -63.07 32.48, -72.38 33.48" stroke="#1e1e1e" stroke-width="2" fill="none"></path></g></g><mask></mask><g mask="url(#mask-_Fvhg1LxZ5Gn6eOYKnaAT)" stroke-linecap="round"><g transform="translate(602.6654110018893 644.275089263916) rotate(0 7.3480304828046314 43.44806960398586)"><path d="M0.11 -0.14 C2.56 14.35, 12.28 72.55, 14.75 87.03 M-0.06 0.2 C2.35 14.62, 12.09 72.3, 14.59 86.75" stroke="#1e1e1e" stroke-width="2" fill="none"></path></g><g transform="translate(602.6654110018893 644.275089263916) rotate(0 7.3480304828046314 43.44806960398586)"><path d="M-0.27 60.68 C4.69 69.7, 10.3 79.24, 14.59 86.75 M-0.27 60.68 C2.68 65.88, 5.73 71.44, 14.59 86.75" stroke="#1e1e1e" stroke-width="2" fill="none"></path></g><g transform="translate(602.6654110018893 644.275089263916) rotate(0 7.3480304828046314 43.44806960398586)"><path d="M19.96 57.23 C17.84 67.48, 16.38 78.23, 14.59 86.75 M19.96 57.23 C18.79 63.17, 17.71 69.43, 14.59 86.75" stroke="#1e1e1e" stroke-width="2" fill="none"></path></g></g><mask id="mask-_Fvhg1LxZ5Gn6eOYKnaAT"><rect x="0" y="0" fill="#fff" width="717.4574895719228" height="831.22858678581"></rect><rect x="576.716723724406" y="676.251838024863" fill="#000" width="66.689453125" height="23" opacity="1"></rect></mask><g transform="translate(576.716723724406 676.251838024863) rotate(0 33.29671776028789 11.471320843038882)"><text x="33.3447265625" y="0" font-family="Helvetica, Segoe UI Emoji" font-size="20px" fill="#1e1e1e" text-anchor="middle" style="white-space: pre;" direction="ltr" dominant-baseline="text-before-edge">discuss</text></g><g mask="url(#mask-uz0FWSFjoTi5Y7p2eqIEV)" stroke-linecap="round"><g transform="translate(1098.5286780911824 509.669250007407) rotate(0 83.68443487221145 63.29825435503375)"><path d="M1.14 -1.15 C16.89 11.35, 66.58 54.24, 94.24 75.56 C121.9 96.87, 154.93 117.93, 167.09 126.73 M0.28 0.85 C15.86 13.01, 65.5 52.9, 93.14 74.05 C120.77 95.2, 153.74 119.04, 166.1 127.75" stroke="#1e1e1e" stroke-width="2" fill="none"></path></g><g transform="translate(1098.5286780911824 509.669250007407) rotate(0 83.68443487221145 63.29825435503375)"><path d="M137.21 119.69 C143.37 121.18, 155.3 123.2, 166.1 127.75 M137.21 119.69 C144.4 122.14, 152.4 123.05, 166.1 127.75" stroke="#1e1e1e" stroke-width="2" fill="none"></path></g><g transform="translate(1098.5286780911824 509.669250007407) rotate(0 83.68443487221145 63.29825435503375)"><path d="M149.15 103 C152.06 109.25, 160.66 115.92, 166.1 127.75 M149.15 103 C153.28 109.78, 158.26 114.9, 166.1 127.75" stroke="#1e1e1e" stroke-width="2" fill="none"></path></g></g><mask id="mask-uz0FWSFjoTi5Y7p2eqIEV"><rect x="0" y="0" fill="#fff" width="1366.0476257781406" height="736.9671516780975"></rect><rect x="1156.9159842980948" y="572.551005739749" fill="#000" width="72.275390625" height="23" opacity="1"></rect></mask><g transform="translate(1156.9159842980948 572.5510057397489) rotate(0 25.297128665299056 0.41649862269173354)"><text x="36.1376953125" y="0" font-family="Helvetica, Segoe UI Emoji" font-size="20px" fill="#1e1e1e" text-anchor="middle" style="white-space: pre;" direction="ltr" dominant-baseline="text-before-edge">manage</text></g><g stroke-linecap="round" transform="translate(913.2632448037605 448.743618739816) rotate(0 49.35081481933594 28)"><path d="M14 0 C28.21 0.4, 43.23 -2.3, 84.7 0 C94.17 -0.42, 98.08 6.95, 98.7 14 C96.86 21.33, 102.1 29.8, 98.7 42 C99.51 49.27, 97.48 53.62, 84.7 56 C68.92 53.52, 44.31 54.15, 14 56 C2.08 59.41, -0.26 47.94, 0 42 C1.64 34.6, 2.58 24, 0 14 C2.39 5.05, 1.14 0.18, 14 0" stroke="none" stroke-width="0" fill="#b2f2bb"></path><path d="M14 0 C32.56 -0.25, 54.77 0.06, 84.7 0 M14 0 C39.91 -0.04, 65.58 0.47, 84.7 0 M84.7 0 C94.15 -0.32, 98.45 5.84, 98.7 14 M84.7 0 C92.77 -0.2, 99.99 5.81, 98.7 14 M98.7 14 C99.4 21.33, 99.74 26.77, 98.7 42 M98.7 14 C99.09 22.59, 99.6 31.37, 98.7 42 M98.7 42 C99.2 51.72, 92.42 54.43, 84.7 56 M98.7 42 C99.62 52.82, 93.48 53.96, 84.7 56 M84.7 56 C61.62 58.21, 39.61 56.61, 14 56 M84.7 56 C62.6 57.32, 39.18 57.45, 14 56 M14 56 C6 54.5, 0.74 50.83, 0 42 M14 56 C2.6 56.59, -2.17 52.78, 0 42 M0 42 C-0.03 36.67, -0.76 29.46, 0 14 M0 42 C0.93 31.69, 0.35 22.54, 0 14 M0 14 C1.68 2.87, 5.99 -1.52, 14 0 M0 14 C-0.21 4.35, 5.41 0.74, 14 0" stroke="#1e1e1e" stroke-width="2" fill="none"></path></g><g transform="translate(930.9441377480964 453.743618739816) rotate(0 31.669921875 23)"><text x="31.669921875" y="0" font-family="Helvetica, Segoe UI Emoji" font-size="20px" fill="#1e1e1e" text-anchor="middle" style="white-space: pre;" direction="ltr" dominant-baseline="text-before-edge">Scrum </text><text x="31.669921875" y="23" font-family="Helvetica, Segoe UI Emoji" font-size="20px" fill="#1e1e1e" text-anchor="middle" style="white-space: pre;" direction="ltr" dominant-baseline="text-before-edge">Master</text></g><g stroke-linecap="round" transform="translate(1155.063897198747 445.4583696017043) rotate(0 50.95075988769531 28)"><path d="M14 0 C36.26 0.58, 57.62 3.29, 87.9 0 C97.58 1.58, 101.89 2.6, 101.9 14 C103.16 19.29, 105.79 26.33, 101.9 42 C100.65 53.23, 96.92 58.96, 87.9 56 C68.01 58.77, 53.03 51.96, 14 56 C7.22 52.9, 1.67 52.54, 0 42 C2.09 31.66, -3.83 20.73, 0 14 C-0.44 7.3, 5.12 -0.93, 14 0" stroke="none" stroke-width="0" fill="#b2f2bb"></path><path d="M14 0 C35.66 1.28, 53.73 -0.01, 87.9 0 M14 0 C33.55 -0.27, 52.86 0.48, 87.9 0 M87.9 0 C96.14 -0.17, 103.03 5.66, 101.9 14 M87.9 0 C95.91 1.69, 103.42 5.23, 101.9 14 M101.9 14 C101.88 23.74, 100.61 32.92, 101.9 42 M101.9 14 C102.38 23.68, 101.32 32.19, 101.9 42 M101.9 42 C102.7 52.63, 96.75 54.23, 87.9 56 M101.9 42 C102.47 53.15, 99.3 55.84, 87.9 56 M87.9 56 C60.29 55.09, 33.87 56.87, 14 56 M87.9 56 C61.73 55.81, 34.6 56.31, 14 56 M14 56 C2.87 56.51, -1.89 52.59, 0 42 M14 56 C2.81 53.95, -1.87 51.01, 0 42 M0 42 C1.37 30.91, 0.81 24.35, 0 14 M0 42 C0.8 33.22, 0.62 25.49, 0 14 M0 14 C-0.19 4.39, 5.31 0.64, 14 0 M0 14 C-2.15 5.15, 3.89 -0.25, 14 0" stroke="#1e1e1e" stroke-width="2" fill="none"></path></g><g transform="translate(1168.7734461489424 450.4583696017043) rotate(0 37.2412109375 23)"><text x="37.2412109375" y="0" font-family="Helvetica, Segoe UI Emoji" font-size="20px" fill="#1e1e1e" text-anchor="middle" style="white-space: pre;" direction="ltr" dominant-baseline="text-before-edge">Product </text><text x="37.2412109375" y="23" font-family="Helvetica, Segoe UI Emoji" font-size="20px" fill="#1e1e1e" text-anchor="middle" style="white-space: pre;" direction="ltr" dominant-baseline="text-before-edge">Owner</text></g><g mask="url(#mask-ub5rme5n4gW2jxkCh3X2a)" stroke-linecap="round"><g transform="translate(906.3611122264487 442.51661457422) rotate(0 -80.20969926440512 -40.64989804581711)"><path d="M-0.05 -0.43 C-26.71 -13.82, -132.77 -67.4, -159.23 -80.87 M-1.53 -1.71 C-28.44 -14.83, -134.04 -66.18, -160.37 -79.24" stroke="#1e1e1e" stroke-width="2" fill="none"></path></g><g transform="translate(906.3611122264487 442.51661457422) rotate(0 -80.20969926440512 -40.64989804581711)"><path d="M-130.54 -76.04 C-142 -77.83, -151.74 -78.24, -160.37 -79.24 M-130.54 -76.04 C-139.56 -76.86, -146.91 -77.18, -160.37 -79.24" stroke="#1e1e1e" stroke-width="2" fill="none"></path></g><g transform="translate(906.3611122264487 442.51661457422) rotate(0 -80.20969926440512 -40.64989804581711)"><path d="M-139.58 -57.61 C-147.7 -66.04, -154.17 -73.1, -160.37 -79.24 M-139.58 -57.61 C-146 -63.71, -150.79 -69.27, -160.37 -79.24" stroke="#1e1e1e" stroke-width="2" fill="none"></path></g></g><mask id="mask-ub5rme5n4gW2jxkCh3X2a"><rect x="0" y="0" fill="#fff" width="1165.2114293755621" height="623.5588583021307"></rect><rect x="790.798258339392" y="390.49549271026467" fill="#000" width="72.275390625" height="23" opacity="1"></rect></mask><g transform="translate(790.7982583393919 390.49549271026467) rotate(0 35.35315462265169 11.371223818138276)"><text x="36.1376953125" y="0" font-family="Helvetica, Segoe UI Emoji" font-size="20px" fill="#1e1e1e" text-anchor="middle" style="white-space: pre;" direction="ltr" dominant-baseline="text-before-edge">manage</text></g><g stroke-linecap="round" transform="translate(1350.8606736447744 211.22935382065637) rotate(0 109.79552681384894 31.291839068875348)"><path d="M15.65 0 C65.91 -0.36, 117.99 -1.2, 203.95 0 M15.65 0 C69.91 -0.2, 125.99 -0.69, 203.95 0 M203.95 0 C214.91 0.83, 218.78 5.07, 219.59 15.65 M203.95 0 C215.05 -1.61, 220.29 6.11, 219.59 15.65 M219.59 15.65 C220.28 25.98, 218.33 40.36, 219.59 46.94 M219.59 15.65 C219.76 27.85, 220.41 38.4, 219.59 46.94 M219.59 46.94 C221.17 58.16, 214.36 62.96, 203.95 62.58 M219.59 46.94 C218.55 59.61, 215.39 64.04, 203.95 62.58 M203.95 62.58 C154.27 64.58, 107.1 62.04, 15.65 62.58 M203.95 62.58 C141.82 62.88, 80.5 63.63, 15.65 62.58 M15.65 62.58 C6.03 61.57, -0.26 58.6, 0 46.94 M15.65 62.58 C3.43 63.35, 1.63 56.94, 0 46.94 M0 46.94 C-2.04 38.44, -1.77 27.12, 0 15.65 M0 46.94 C-1.04 38.2, -0.44 28.92, 0 15.65 M0 15.65 C-0.01 5.23, 3.7 0.08, 15.65 0 M0 15.65 C-0.27 4.82, 6.67 0.22, 15.65 0" stroke="#1e1e1e" stroke-width="2" fill="none"></path></g><g transform="translate(1403.3954582711233 219.5211928895317) rotate(0 57.2607421875 23)"><text x="57.2607421875" y="0" font-family="Helvetica, Segoe UI Emoji" font-size="20px" fill="#1e1e1e" text-anchor="middle" style="white-space: pre;" direction="ltr" dominant-baseline="text-before-edge">continuous </text><text x="57.2607421875" y="23" font-family="Helvetica, Segoe UI Emoji" font-size="20px" fill="#1e1e1e" text-anchor="middle" style="white-space: pre;" direction="ltr" dominant-baseline="text-before-edge">development</text></g><g mask="url(#mask-8Km3ERSRj5Sf35a-A62hP)" stroke-linecap="round"><g transform="translate(1159.9291839726325 202.61131487821544) rotate(0 90.30035030054557 23.764968044918092)"><path d="M-0.27 -0.04 C29.89 7.91, 150.77 39.99, 180.87 48.02 M0.48 -0.49 C30.6 7.3, 150.73 39.31, 180.63 47.28" stroke="#1e1e1e" stroke-width="2" fill="none"></path></g><g transform="translate(1159.9291839726325 202.61131487821544) rotate(0 90.30035030054557 23.764968044918092)"><path d="M150.74 49.94 C159.25 49.76, 168.36 47.97, 180.63 47.28 M150.74 49.94 C162.02 49.1, 172.88 47.89, 180.63 47.28" stroke="#1e1e1e" stroke-width="2" fill="none"></path></g><g transform="translate(1159.9291839726325 202.61131487821544) rotate(0 90.30035030054557 23.764968044918092)"><path d="M156.03 30.11 C163.07 35.61, 170.66 39.53, 180.63 47.28 M156.03 30.11 C165.39 36.68, 174.27 42.88, 180.63 47.28" stroke="#1e1e1e" stroke-width="2" fill="none"></path></g></g><mask id="mask-8Km3ERSRj5Sf35a-A62hP"><rect x="0" y="0" fill="#fff" width="1440.5234798493261" height="350.38550131923"></rect><rect x="1232.4431287859793" y="214.9984080987227" fill="#000" width="35.56640625" height="23" opacity="1"></rect></mask><g transform="translate(1232.4431287859793 214.99840809872273) rotate(0 17.78640548719875 11.377874824410796)"><text x="17.783203125" y="0" font-family="Helvetica, Segoe UI Emoji" font-size="20px" fill="#1e1e1e" text-anchor="middle" style="white-space: pre;" direction="ltr" dominant-baseline="text-before-edge">with</text></g><g stroke-linecap="round" transform="translate(404.7401250203451 573.6978174845376) rotate(0 53.55186462402344 31.14751180013019)"><path d="M15.57 0 C47.53 0.16, 78.65 -1.89, 91.53 0 C99.01 -1.74, 104.52 8.61, 107.1 15.57 C103.48 26.37, 107.78 36.8, 107.1 46.72 C109.25 59.87, 104.3 62.68, 91.53 62.3 C78.82 62.58, 59.9 59.68, 15.57 62.3 C3.9 64.6, 1.86 60.2, 0 46.72 C-0.08 37.84, 0.04 31.82, 0 15.57 C0.91 2.9, 5.88 -1.52, 15.57 0" stroke="none" stroke-width="0" fill="#ffec99"></path><path d="M15.57 0 C44.1 1.76, 70.18 0.98, 91.53 0 M15.57 0 C41.81 -0.65, 67.76 0.44, 91.53 0 M91.53 0 C103.55 1.92, 107.6 5.58, 107.1 15.57 M91.53 0 C100.05 -1.8, 108.02 6.68, 107.1 15.57 M107.1 15.57 C108.41 25.96, 106.69 34.34, 107.1 46.72 M107.1 15.57 C106.65 27.13, 107.54 37.37, 107.1 46.72 M107.1 46.72 C106.22 58.64, 103.24 60.79, 91.53 62.3 M107.1 46.72 C107.96 56.52, 99.84 62.88, 91.53 62.3 M91.53 62.3 C74.14 60.06, 60.04 62.49, 15.57 62.3 M91.53 62.3 C71.8 63.1, 54.34 62.58, 15.57 62.3 M15.57 62.3 C5.47 63.87, 1.68 55.31, 0 46.72 M15.57 62.3 C6.71 60.55, -0.21 56.78, 0 46.72 M0 46.72 C0.32 35.7, -0.32 26.01, 0 15.57 M0 46.72 C0.12 37.19, 0.87 28.1, 0 15.57 M0 15.57 C0.88 5.19, 4.04 -0.75, 15.57 0 M0 15.57 C2.03 4.21, 5.71 -1.32, 15.57 0" stroke="#1e1e1e" stroke-width="2" fill="none"></path></g><g transform="translate(412.1591771443685 593.3453292846679) rotate(0 46.1328125 11.500000000000028)"><text x="46.1328125" y="0" font-family="Helvetica, Segoe UI Emoji" font-size="20px" fill="#1e1e1e" text-anchor="middle" style="white-space: pre;" direction="ltr" dominant-baseline="text-before-edge">The Sprint</text></g><g stroke-linecap="round" transform="translate(264.13780975341786 576.0746765136721) rotate(0 60.109354654947936 28)"><path d="M14 0 C37.95 -0.65, 65.11 4.51, 106.22 0 C115.3 -3.39, 122.77 1.57, 120.22 14 C122.54 26.47, 122.78 33.78, 120.22 42 C116.69 51.51, 115.11 58.64, 106.22 56 C76.1 57.18, 50.43 57.97, 14 56 C2.84 53.53, -2.59 50.87, 0 42 C0.95 32.18, 0.74 25.42, 0 14 C-2.13 6.04, 8.14 -3.25, 14 0" stroke="none" stroke-width="0" fill="#ffec99"></path><path d="M14 0 C48.59 -1.06, 81.37 0.34, 106.22 0 M14 0 C36.01 0.6, 56.63 -0.17, 106.22 0 M106.22 0 C113.93 -1.57, 121.02 5.96, 120.22 14 M106.22 0 C115 -2.04, 120.78 6.49, 120.22 14 M120.22 14 C120.99 24.89, 120.58 34.92, 120.22 42 M120.22 14 C119.9 25.9, 121.01 35.51, 120.22 42 M120.22 42 C120.96 50.83, 113.75 56.51, 106.22 56 M120.22 42 C118.04 52.78, 113.69 53.95, 106.22 56 M106.22 56 C85.03 56.11, 67.1 54.82, 14 56 M106.22 56 C75.6 56.61, 45.55 54.93, 14 56 M14 56 C5.99 54.48, -0.19 51.06, 0 42 M14 56 C5.41 56.74, -2.15 51.82, 0 42 M0 42 C0.04 33.03, 0.11 26.85, 0 14 M0 42 C0.26 34.08, -0.75 25.8, 0 14 M0 14 C1.77 3.81, 5.12 -1.15, 14 0 M0 14 C2.2 3.15, 3.86 1.21, 14 0" stroke="#1e1e1e" stroke-width="2" fill="none"></path></g><g transform="translate(285.3262659708658 581.0746765136721) rotate(0 38.9208984375 23)"><text x="38.9208984375" y="0" font-family="Helvetica, Segoe UI Emoji" font-size="20px" fill="#1e1e1e" text-anchor="middle" style="white-space: pre;" direction="ltr" dominant-baseline="text-before-edge">Sprint </text><text x="38.9208984375" y="23" font-family="Helvetica, Segoe UI Emoji" font-size="20px" fill="#1e1e1e" text-anchor="middle" style="white-space: pre;" direction="ltr" dominant-baseline="text-before-edge">Planning</text></g><g stroke-linecap="round"><g transform="translate(703.7706174294561 446.92205047607416) rotate(0 -125.39630174909456 61.560631142929225)"><path d="M0.35 -0.84 C-41.3 19.83, -208.7 103.05, -250.39 123.96 M-0.92 1.33 C-42.66 21.65, -209.63 101.82, -251.14 122.09" stroke="#1e1e1e" stroke-width="2" fill="none"></path></g><g transform="translate(703.7706174294561 446.92205047607416) rotate(0 -125.39630174909456 61.560631142929225)"><path d="M-230.23 100.58 C-237.08 106.83, -240.32 113.44, -251.14 122.09 M-230.23 100.58 C-239.27 108.35, -246.34 118.3, -251.14 122.09" stroke="#1e1e1e" stroke-width="2" fill="none"></path></g><g transform="translate(703.7706174294561 446.92205047607416) rotate(0 -125.39630174909456 61.560631142929225)"><path d="M-221.3 119.05 C-230.45 120.54, -236.01 122.35, -251.14 122.09 M-221.3 119.05 C-233.92 119.53, -244.53 122.16, -251.14 122.09" stroke="#1e1e1e" stroke-width="2" fill="none"></path></g></g><mask></mask><g stroke-linecap="round"><g transform="translate(694.3576380411783 446.92199961344403) rotate(0 -189.1572809720163 61.611694820933025)"><path d="M0.37 0.47 C-62.73 21.2, -315.03 103.2, -378.25 123.56 M-0.9 -0.33 C-64.1 20.17, -315.57 101.31, -378.68 122.04" stroke="#1e1e1e" stroke-width="2" fill="none"></path></g><g transform="translate(694.3576380411783 446.92199961344403) rotate(0 -189.1572809720163 61.611694820933025)"><path d="M-355.05 103.56 C-362.18 111.36, -368.82 116.31, -378.68 122.04 M-355.05 103.56 C-362.34 109.93, -370.53 114.29, -378.68 122.04" stroke="#1e1e1e" stroke-width="2" fill="none"></path></g><g transform="translate(694.3576380411783 446.92199961344403) rotate(0 -189.1572809720163 61.611694820933025)"><path d="M-348.7 123.08 C-357.79 124.47, -366.52 122.99, -378.68 122.04 M-348.7 123.08 C-357.86 123.16, -368.08 121.29, -378.68 122.04" stroke="#1e1e1e" stroke-width="2" fill="none"></path></g></g><mask></mask><g stroke-linecap="round" transform="translate(1042.5457586081936 257.50796541534885) rotate(0 61.74855550130201 27.86884307861328)"><path d="M13.93 0 C35.28 2.69, 56.27 3.63, 109.56 0 C121.62 2.39, 123.88 1.12, 123.5 13.93 C123.89 21.5, 120.99 29.64, 123.5 41.8 C125.81 52.95, 121.95 53.91, 109.56 55.74 C86.32 55.18, 65.94 56.42, 13.93 55.74 C2.35 56.43, -1.52 48.96, 0 41.8 C-3.12 33.62, -3.95 25.03, 0 13.93 C-2.62 3.17, 5.47 -3.27, 13.93 0" stroke="none" stroke-width="0" fill="#a5d8ff"></path><path d="M13.93 0 C47.46 -0.29, 77.54 -2.4, 109.56 0 M13.93 0 C34.9 -1.51, 56.58 0.17, 109.56 0 M109.56 0 C120.65 -0.14, 125.07 5.44, 123.5 13.93 M109.56 0 C118.83 0.43, 122.45 6.89, 123.5 13.93 M123.5 13.93 C125.2 24.85, 122.17 33.85, 123.5 41.8 M123.5 13.93 C122.3 22.22, 122.44 28.35, 123.5 41.8 M123.5 41.8 C121.87 50.81, 119.66 54.73, 109.56 55.74 M123.5 41.8 C123.19 52.51, 117.06 56.51, 109.56 55.74 M109.56 55.74 C75.66 57.55, 36.8 57.19, 13.93 55.74 M109.56 55.74 C88.46 55.93, 65.78 55.82, 13.93 55.74 M13.93 55.74 C3.97 55.52, -0.01 51.1, 0 41.8 M13.93 55.74 C2.9 55.83, -0.27 50.69, 0 41.8 M0 41.8 C-0.03 30.53, -0.77 23.32, 0 13.93 M0 41.8 C0.89 33.98, -0.41 28, 0 13.93 M0 13.93 C-0.18 6.29, 3.33 -1.61, 13.93 0 M0 13.93 C-1.11 2.99, 6.83 -0.16, 13.93 0" stroke="#1e1e1e" stroke-width="2" fill="none"></path></g><g mask="url(#mask-gYOk2r5bG0ob2WJxy6MAt)" stroke-linecap="round"><g transform="translate(672.5450420188967 142.00404103597012) rotate(0 183.45440680779745 54.89187197678566)"><path d="M0.3 0.23 C61.09 18.28, 304.57 90.95, 365.71 109.43 M-1 -0.69 C60.07 17.99, 306.64 92.16, 367.91 110.48" stroke="#1e1e1e" stroke-width="2" fill="none"></path></g><g transform="translate(672.5450420188967 142.00404103597012) rotate(0 183.45440680779745 54.89187197678566)"><path d="M337.96 112.2 C349.77 109.85, 359.26 111.61, 367.91 110.48 M337.96 112.2 C349.13 112.63, 360.71 111.14, 367.91 110.48" stroke="#1e1e1e" stroke-width="2" fill="none"></path></g><g transform="translate(672.5450420188967 142.00404103597012) rotate(0 183.45440680779745 54.89187197678566)"><path d="M343.86 92.54 C353.61 97.72, 360.84 106.99, 367.91 110.48 M343.86 92.54 C352.83 100.09, 362.26 105.77, 367.91 110.48" stroke="#1e1e1e" stroke-width="2" fill="none"></path></g></g><mask id="mask-gYOk2r5bG0ob2WJxy6MAt"><rect x="0" y="0" fill="#fff" width="1139.2241273819018" height="352.3753042320069"></rect><rect x="839.7615378253992" y="185.68967263398852" fill="#000" width="32.24609375" height="23" opacity="1"></rect></mask><g transform="translate(839.7615378253993 185.68967263398852) rotate(0 16.237911001294833 11.206240378767255)"><text x="16.123046875" y="0" font-family="Helvetica, Segoe UI Emoji" font-size="20px" fill="#1e1e1e" text-anchor="middle" style="white-space: pre;" direction="ltr" dominant-baseline="text-before-edge">has</text></g><g stroke-linecap="round" transform="translate(1231.8474739679837 645.5022172566662) rotate(0 50.273234049479015 30.601094563802064)"><path d="M15.3 0 C40.84 -4.36, 65.79 -1.28, 85.25 0 C98.08 0.45, 99.61 2.66, 100.55 15.3 C104 21.56, 98.43 28.87, 100.55 45.9 C100.09 54.99, 95.1 61.84, 85.25 61.2 C60.98 59.32, 41.13 64.92, 15.3 61.2 C1.85 58.57, 1.24 52.64, 0 45.9 C1.22 31.69, -1.84 24.71, 0 15.3 C1.37 4.95, 1.7 3.41, 15.3 0" stroke="none" stroke-width="0" fill="#eebefa"></path><path d="M15.3 0 C31.92 -0.76, 44.18 0.21, 85.25 0 M15.3 0 C42.6 0.45, 68.32 0.24, 85.25 0 M85.25 0 C94.54 1.95, 101.43 6.36, 100.55 15.3 M85.25 0 C94.43 1.76, 102.08 3.37, 100.55 15.3 M100.55 15.3 C100.98 23.73, 101.73 34.32, 100.55 45.9 M100.55 15.3 C100.7 21.25, 100.17 28.82, 100.55 45.9 M100.55 45.9 C98.99 56.77, 96.87 60.83, 85.25 61.2 M100.55 45.9 C100.86 57.91, 97.38 59.13, 85.25 61.2 M85.25 61.2 C59.36 61.78, 34.66 59.27, 15.3 61.2 M85.25 61.2 C62.77 61.13, 39.55 61.16, 15.3 61.2 M15.3 61.2 C4.86 60.86, 1.27 56.3, 0 45.9 M15.3 61.2 C6.11 61.2, -1.32 55.25, 0 45.9 M0 45.9 C-1.01 35.93, -1.19 21.44, 0 15.3 M0 45.9 C-0.63 34.3, -0.46 23.59, 0 15.3 M0 15.3 C1.9 4.96, 3.21 1.42, 15.3 0 M0 15.3 C-1.98 6.17, 5.87 1.91, 15.3 0" stroke="#1e1e1e" stroke-width="2" fill="none"></path></g><g transform="translate(1246.5445361424627 653.1033118204684) rotate(0 35.576171875 23)"><text x="35.576171875" y="0" font-family="Helvetica, Segoe UI Emoji" font-size="20px" fill="#1e1e1e" text-anchor="middle" style="white-space: pre;" direction="ltr" dominant-baseline="text-before-edge">Sprint </text><text x="35.576171875" y="23" font-family="Helvetica, Segoe UI Emoji" font-size="20px" fill="#1e1e1e" text-anchor="middle" style="white-space: pre;" direction="ltr" dominant-baseline="text-before-edge">Backlog</text></g><g stroke-linecap="round" transform="translate(1372.9910864650328 649.4144017322171) rotate(0 56.065582275390625 30.163955688476562)"><path d="M15.08 0 C34.28 0.63, 47.28 -2.26, 97.05 0 C105.81 2.31, 113.99 8.12, 112.13 15.08 C111.3 21.49, 111.42 30.76, 112.13 45.25 C113.04 53.01, 107.79 58.81, 97.05 60.33 C74.05 59.12, 58.8 58.29, 15.08 60.33 C7.1 57.71, -1.47 56.12, 0 45.25 C1.71 38.79, -3.06 36.04, 0 15.08 C1.25 4.03, 6.09 1.45, 15.08 0" stroke="none" stroke-width="0" fill="#eebefa"></path><path d="M15.08 0 C39.28 1.59, 60.18 1.37, 97.05 0 M15.08 0 C42.48 0.82, 71.22 0.48, 97.05 0 M97.05 0 C106.22 1.53, 113.46 3.52, 112.13 15.08 M97.05 0 C107.96 -0.58, 110.06 5.62, 112.13 15.08 M112.13 15.08 C110.54 19.65, 112.04 28.29, 112.13 45.25 M112.13 15.08 C111.31 22.94, 112.8 29.94, 112.13 45.25 M112.13 45.25 C112.41 56.87, 108.79 58.53, 97.05 60.33 M112.13 45.25 C113.65 53.55, 106.89 60.01, 97.05 60.33 M97.05 60.33 C70.23 58.89, 42.35 59.55, 15.08 60.33 M97.05 60.33 C72.3 60.19, 48.42 60.46, 15.08 60.33 M15.08 60.33 C5.9 60.32, -1.15 54.56, 0 45.25 M15.08 60.33 C7.06 59.34, 0.52 53.98, 0 45.25 M0 45.25 C1.25 33.13, 1.85 20.06, 0 15.08 M0 45.25 C1.09 38.55, -0.8 32.71, 0 15.08 M0 15.08 C-1.72 5.96, 5.7 1.66, 15.08 0 M0 15.08 C1.37 6.8, 6.55 0.24, 15.08 0" stroke="#1e1e1e" stroke-width="2" fill="none"></path></g><g transform="translate(1391.8154578029234 656.5783574206937) rotate(0 37.2412109375 23)"><text x="37.2412109375" y="0" font-family="Helvetica, Segoe UI Emoji" font-size="20px" fill="#1e1e1e" text-anchor="middle" style="white-space: pre;" direction="ltr" dominant-baseline="text-before-edge">Product </text><text x="37.2412109375" y="23" font-family="Helvetica, Segoe UI Emoji" font-size="20px" fill="#1e1e1e" text-anchor="middle" style="white-space: pre;" direction="ltr" dominant-baseline="text-before-edge">Backlog</text></g><g stroke-linecap="round" transform="translate(1035.6515343537176 646.8540082458669) rotate(0 56.065582275390625 30.163955688476562)"><path d="M15.08 0 C39.41 3.31, 68.18 4.1, 97.05 0 C105.28 -2.47, 109.54 4.57, 112.13 15.08 C112.99 20.91, 112.77 29.79, 112.13 45.25 C110 56.67, 110.58 57.08, 97.05 60.33 C80.52 56.29, 58.39 59.73, 15.08 60.33 C1.76 58.09, 0.69 56.67, 0 45.25 C1.76 35.33, 1.57 28.84, 0 15.08 C-3.6 2.04, 7.18 -0.63, 15.08 0" stroke="none" stroke-width="0" fill="#eebefa"></path><path d="M15.08 0 C47.82 -0.67, 79.34 -1.55, 97.05 0 M15.08 0 C47.22 0.25, 80.91 -1.27, 97.05 0 M97.05 0 C107.85 -0.51, 110.33 5.54, 112.13 15.08 M97.05 0 C104.93 1.45, 110.27 2.98, 112.13 15.08 M112.13 15.08 C111.08 21.42, 113.32 26.72, 112.13 45.25 M112.13 15.08 C112.48 25.93, 113.19 34.3, 112.13 45.25 M112.13 45.25 C113.45 53.78, 106.92 60.05, 97.05 60.33 M112.13 45.25 C112.87 56.04, 104.95 60.82, 97.05 60.33 M97.05 60.33 C75.22 58.81, 53.45 60.09, 15.08 60.33 M97.05 60.33 C74.32 60.4, 50.14 60.03, 15.08 60.33 M15.08 60.33 C6.79 59.47, 0.45 54.16, 0 45.25 M15.08 60.33 C7.23 58.81, -0.8 56.51, 0 45.25 M0 45.25 C-1.86 35.5, -1.68 29.58, 0 15.08 M0 45.25 C-0.58 36.88, 0.62 28.41, 0 15.08 M0 15.08 C1.19 6.57, 6.35 0.21, 15.08 0 M0 15.08 C-2.25 5.14, 4.74 1.69, 15.08 0" stroke="#1e1e1e" stroke-width="2" fill="none"></path></g><g transform="translate(1047.2542260041082 665.5179639343435) rotate(0 44.462890625 11.5)"><text x="44.462890625" y="0" font-family="Helvetica, Segoe UI Emoji" font-size="20px" fill="#1e1e1e" text-anchor="middle" style="white-space: pre;" direction="ltr" dominant-baseline="text-before-edge">Increment</text></g><g stroke-linecap="round"><g transform="translate(1496.456208198301 483.2311462178871) rotate(0 -111.976925345665 124.97754226083418)"><path d="M-0.54 1.17 C-1.49 39.76, 33.58 193.15, -5.7 231.76 C-44.97 270.36, -198 232.92, -236.19 232.79 M1.37 0.74 C0.31 38.97, 33.4 191.67, -6.37 230.03 C-46.13 268.4, -199.26 230.67, -237.23 230.93" stroke="#1e1e1e" stroke-width="2" fill="none"></path></g><g transform="translate(1496.456208198301 483.2311462178871) rotate(0 -111.976925345665 124.97754226083418)"><path d="M-208.04 224.03 C-214.8 226.84, -224.22 227.14, -237.23 230.93 M-208.04 224.03 C-218.61 226.16, -230.88 229.27, -237.23 230.93" stroke="#1e1e1e" stroke-width="2" fill="none"></path></g><g transform="translate(1496.456208198301 483.2311462178871) rotate(0 -111.976925345665 124.97754226083418)"><path d="M-210.43 244.41 C-216.52 241.14, -225.22 235.35, -237.23 230.93 M-210.43 244.41 C-220.24 238.88, -231.61 234.32, -237.23 230.93" stroke="#1e1e1e" stroke-width="2" fill="none"></path></g></g><mask></mask><g stroke-linecap="round"><g transform="translate(1475.9686052456861 480.8956279768001) rotate(0 -17.312155267876733 78.50733980633751)"><path d="M0.13 0.19 C-5.59 26.3, -28.75 130.93, -34.46 156.99 M-0.16 0.03 C-5.92 26.19, -29.08 130.47, -34.75 156.59" stroke="#1e1e1e" stroke-width="2" fill="none"></path></g><g transform="translate(1475.9686052456861 480.8956279768001) rotate(0 -17.312155267876733 78.50733980633751)"><path d="M-38.72 126.85 C-37.27 134.17, -36.19 142.36, -34.75 156.59 M-38.72 126.85 C-38.05 133.61, -37.17 140.4, -34.75 156.59" stroke="#1e1e1e" stroke-width="2" fill="none"></path></g><g transform="translate(1475.9686052456861 480.8956279768001) rotate(0 -17.312155267876733 78.50733980633751)"><path d="M-18.68 131.26 C-22.35 137.48, -26.37 144.55, -34.75 156.59 M-18.68 131.26 C-22.52 137.01, -26.14 142.81, -34.75 156.59" stroke="#1e1e1e" stroke-width="2" fill="none"></path></g></g><mask></mask><g stroke-linecap="round"><g transform="translate(1518.675094444004 468.7138473749457) rotate(0 -211.3956305730852 148.3163137360189)"><path d="M-0.53 0.92 C-4.46 48.04, 49.86 243.49, -23.06 283.49 C-95.97 323.48, -368.61 247.87, -438.02 240.87 M1.39 0.36 C-2.67 47.54, 49.74 244.27, -23.59 284.55 C-96.91 324.83, -369.17 248.99, -438.55 242.03" stroke="#1e1e1e" stroke-width="2" fill="none"></path></g><g transform="translate(1518.675094444004 468.7138473749457) rotate(0 -211.3956305730852 148.3163137360189)"><path d="M-408.96 237.12 C-417.58 240.01, -430.79 241.11, -438.55 242.03 M-408.96 237.12 C-418.08 239.17, -426.07 239, -438.55 242.03" stroke="#1e1e1e" stroke-width="2" fill="none"></path></g><g transform="translate(1518.675094444004 468.7138473749457) rotate(0 -211.3956305730852 148.3163137360189)"><path d="M-412.73 257.29 C-420.18 253.25, -432.1 247.42, -438.55 242.03 M-412.73 257.29 C-420.63 253.79, -427.59 248.08, -438.55 242.03" stroke="#1e1e1e" stroke-width="2" fill="none"></path></g></g><mask></mask><g transform="translate(1074.2845484844956 273.87680849396213) rotate(0 30.009765625 11.5)"><text x="30.009765625" y="0" font-family="Helvetica, Segoe UI Emoji" font-size="20px" fill="#1e1e1e" text-anchor="middle" style="white-space: pre;" direction="ltr" dominant-baseline="text-before-edge">artifact</text></g><g mask="url(#mask-mNjJEnUUgRttdEkObaKDf)" stroke-linecap="round"><g transform="translate(1250.9063621610526 507.6527818452675) rotate(0 78.44471745921248 63.100648813068915)"><path d="M0.45 -0.3 C15.7 13.22, 66.47 58.89, 92.29 80.22 C118.11 101.56, 144.83 120.1, 155.37 127.71 M-0.78 -1.51 C14.76 11.71, 68.03 57.05, 94.44 78.26 C120.84 99.48, 147.53 117.74, 157.67 125.76" stroke="#1e1e1e" stroke-width="2" fill="none"></path></g><g transform="translate(1250.9063621610526 507.6527818452675) rotate(0 78.44471745921248 63.100648813068915)"><path d="M128.93 117.15 C138.89 118.4, 150.45 121.47, 157.67 125.76 M128.93 117.15 C138.48 120.39, 150.13 123.15, 157.67 125.76" stroke="#1e1e1e" stroke-width="2" fill="none"></path></g><g transform="translate(1250.9063621610526 507.6527818452675) rotate(0 78.44471745921248 63.100648813068915)"><path d="M141.19 100.69 C146.54 108.02, 153.6 117.12, 157.67 125.76 M141.19 100.69 C146.16 109.8, 153.36 118.53, 157.67 125.76" stroke="#1e1e1e" stroke-width="2" fill="none"></path></g></g><mask id="mask-mNjJEnUUgRttdEkObaKDf"><rect x="0" y="0" fill="#fff" width="1507.4096919572094" height="734.607723784994"></rect><rect x="1308.1395468913129" y="576.0702362882425" fill="#000" width="72.275390625" height="23" opacity="1"></rect></mask><g transform="translate(1308.1395468913129 576.0702362882425) rotate(0 21.211532728952193 -5.316805629906128)"><text x="36.1376953125" y="0" font-family="Helvetica, Segoe UI Emoji" font-size="20px" fill="#1e1e1e" text-anchor="middle" style="white-space: pre;" direction="ltr" dominant-baseline="text-before-edge">manage</text></g><g mask="url(#mask-FPATqLQRDLTuVGhOK3jqv)" stroke-linecap="round"><g transform="translate(1073.2135570310875 513.2911991225678) rotate(0 2.2256201257138173 62.538237538492695)"><path d="M-0.15 0.1 C0.59 20.91, 3.57 104.11, 4.31 124.93 M0.06 0.01 C0.86 20.84, 3.84 104.2, 4.6 125.06" stroke="#1e1e1e" stroke-width="2" fill="none"></path></g><g transform="translate(1073.2135570310875 513.2911991225678) rotate(0 2.2256201257138173 62.538237538492695)"><path d="M-6.67 97.26 C-4.1 102.87, -2.2 108.71, 4.6 125.06 M-6.67 97.26 C-3.45 105.31, -0.33 113.22, 4.6 125.06" stroke="#1e1e1e" stroke-width="2" fill="none"></path></g><g transform="translate(1073.2135570310875 513.2911991225678) rotate(0 2.2256201257138173 62.538237538492695)"><path d="M13.84 96.52 C12.1 102.25, 9.7 108.25, 4.6 125.06 M13.84 96.52 C11.19 104.77, 8.45 112.88, 4.6 125.06" stroke="#1e1e1e" stroke-width="2" fill="none"></path></g></g><mask id="mask-FPATqLQRDLTuVGhOK3jqv"><rect x="0" y="0" fill="#fff" width="1177.6540416336827" height="738.3659622923484"></rect><rect x="1040.9757915198852" y="564.3285807074581" fill="#000" width="68.916015625" height="23" opacity="1"></rect></mask><g transform="translate(1040.9757915198852 564.3285807074581) rotate(0 34.46338563691609 11.50085595360241)"><text x="34.4580078125" y="0" font-family="Helvetica, Segoe UI Emoji" font-size="20px" fill="#1e1e1e" text-anchor="middle" style="white-space: pre;" direction="ltr" dominant-baseline="text-before-edge">delivery</text></g><g stroke-linecap="round" transform="translate(268.5646514892578 155.3972193400065) rotate(0 61.88529968261719 29.098358154296882)"><path d="M14.55 0 C53.34 -2.22, 91.71 -1.37, 109.22 0 C117.45 0.82, 120.5 2.61, 123.77 14.55 C120.57 27.25, 125.22 32.13, 123.77 43.65 C124.83 54.79, 115.32 55.21, 109.22 58.2 C76.27 58.54, 41.9 58.32, 14.55 58.2 C2.68 58.18, -2.32 49.82, 0 43.65 C1.23 33.66, -1.84 28.17, 0 14.55 C0.48 2.5, 7.79 1.79, 14.55 0" stroke="none" stroke-width="0" fill="#a5d8ff"></path><path d="M14.55 0 C35.02 1.58, 55.04 0.51, 109.22 0 M14.55 0 C49.49 -0.5, 83.14 0.47, 109.22 0 M109.22 0 C120.6 -1.8, 125.09 3.33, 123.77 14.55 M109.22 0 C118.71 -0.32, 124.51 5.59, 123.77 14.55 M123.77 14.55 C123.61 20.55, 123.84 25.06, 123.77 43.65 M123.77 14.55 C124.37 23.49, 124.17 32.23, 123.77 43.65 M123.77 43.65 C122.62 52.6, 120.69 57.34, 109.22 58.2 M123.77 43.65 C124.29 52.03, 121.12 56.68, 109.22 58.2 M109.22 58.2 C85.77 56.8, 57.41 57.15, 14.55 58.2 M109.22 58.2 C86.67 58.84, 65.14 58.59, 14.55 58.2 M14.55 58.2 C5.52 59.86, 1.19 54.89, 0 43.65 M14.55 58.2 C6.38 58.44, -2.25 53.46, 0 43.65 M0 43.65 C-0.73 33.92, -0.93 28.19, 0 14.55 M0 43.65 C-0.94 32.7, -0.38 22.88, 0 14.55 M0 14.55 C-0.19 5.2, 5.35 -1.27, 14.55 0 M0 14.55 C0.44 3.88, 3.49 0.88, 14.55 0" stroke="#1e1e1e" stroke-width="2" fill="none"></path></g><g transform="translate(283.775146484375 172.99557749430338) rotate(0 46.6748046875 11.5)"><text x="46.6748046875" y="0" font-family="Helvetica, Segoe UI Emoji" font-size="20px" fill="#1e1e1e" text-anchor="middle" style="white-space: pre;" direction="ltr" dominant-baseline="text-before-edge">framework</text></g><g stroke-linecap="round" transform="translate(431.3147430419922 219.39723459879556) rotate(0 61.88529968261719 29.09835815429689)"><path d="M14.55 0 C32.36 2.06, 49.85 -1, 109.22 0 C119.61 1.37, 123.62 1.45, 123.77 14.55 C125.01 27.48, 120.35 34.53, 123.77 43.65 C125.93 52.72, 119.73 59.31, 109.22 58.2 C78.77 58.05, 50.33 54.54, 14.55 58.2 C4.54 60.62, 2.44 54.93, 0 43.65 C0.69 33.8, 3.16 30.42, 0 14.55 C0.23 6.32, 4.71 -1.38, 14.55 0" stroke="none" stroke-width="0" fill="#a5d8ff"></path><path d="M14.55 0 C48.03 -1.43, 79.71 1.54, 109.22 0 M14.55 0 C42.02 -1.64, 68.47 -1.5, 109.22 0 M109.22 0 C118.73 -0.28, 124.42 5.49, 123.77 14.55 M109.22 0 C116.77 0.49, 123 4.6, 123.77 14.55 M123.77 14.55 C123.85 23.02, 123.43 33.24, 123.77 43.65 M123.77 14.55 C123.32 23.19, 124.78 32.14, 123.77 43.65 M123.77 43.65 C124.22 52.2, 120.83 56.87, 109.22 58.2 M123.77 43.65 C122.97 54.56, 118.72 60.09, 109.22 58.2 M109.22 58.2 C85.62 59.64, 64.74 55.85, 14.55 58.2 M109.22 58.2 C74.44 59.47, 39.59 59.41, 14.55 58.2 M14.55 58.2 C6.18 58.41, -1.96 53.45, 0 43.65 M14.55 58.2 C4.57 59.88, 0.29 52.75, 0 43.65 M0 43.65 C1.14 38.61, -0.91 28.77, 0 14.55 M0 43.65 C-0.06 37.19, 0.29 29.74, 0 14.55 M0 14.55 C0.38 4.01, 3.67 0.76, 14.55 0 M0 14.55 C2.22 2.77, 3.17 0.79, 14.55 0" stroke="#1e1e1e" stroke-width="2" fill="none"></path></g><g transform="translate(467.0818786621094 236.99559275309244) rotate(0 26.1181640625 11.5)"><text x="26.1181640625" y="0" font-family="Helvetica, Segoe UI Emoji" font-size="20px" fill="#1e1e1e" text-anchor="middle" style="white-space: pre;" direction="ltr" dominant-baseline="text-before-edge">pillars</text></g><g stroke-linecap="round" transform="translate(10 412.0456720987956) rotate(0 71.19999694824219 31.199981689453125)"><path d="M15.6 0 C52.19 2.62, 87.26 -2.15, 126.8 0 C140.61 1.25, 141.41 6.26, 142.4 15.6 C143.99 25.59, 142.65 37.94, 142.4 46.8 C142.35 58.03, 136.94 60.23, 126.8 62.4 C93.18 62.86, 62.63 62.02, 15.6 62.4 C3.69 60.91, 1.47 57.67, 0 46.8 C-0.22 40.94, -0.6 30.77, 0 15.6 C-2.82 2.24, 2.09 0.68, 15.6 0" stroke="none" stroke-width="0" fill="#eaddd7"></path><path d="M15.6 0 C39.94 -0.52, 66.6 0.89, 126.8 0 M15.6 0 C38.87 0.71, 62.64 1.17, 126.8 0 M126.8 0 C135.33 0.42, 141.73 4.98, 142.4 15.6 M126.8 0 C137.19 0.01, 140.66 5.29, 142.4 15.6 M142.4 15.6 C142.54 25.47, 142.34 32.44, 142.4 46.8 M142.4 15.6 C142.9 23.22, 143.63 31.33, 142.4 46.8 M142.4 46.8 C141.7 58.26, 137.02 64.05, 126.8 62.4 M142.4 46.8 C140.89 55.35, 136.09 60.75, 126.8 62.4 M126.8 62.4 C84.31 59.63, 39.91 62.02, 15.6 62.4 M126.8 62.4 C84.88 63.36, 40.65 63.31, 15.6 62.4 M15.6 62.4 C4.95 63.87, 0.25 56.68, 0 46.8 M15.6 62.4 C3.64 61.57, 1.48 58.39, 0 46.8 M0 46.8 C-1.28 34.5, -0.46 22.52, 0 15.6 M0 46.8 C0.11 36.47, -0.67 27.36, 0 15.6 M0 15.6 C1.93 3.39, 3.74 0.69, 15.6 0 M0 15.6 C-2.21 6.52, 3.53 -0.94, 15.6 0" stroke="#1e1e1e" stroke-width="2" fill="none"></path></g><g transform="translate(36.17070007324219 431.7456537882487) rotate(0 45.029296875 11.5)"><text x="45.029296875" y="0" font-family="Helvetica, Segoe UI Emoji" font-size="20px" fill="#1e1e1e" text-anchor="middle" style="white-space: pre;" direction="ltr" dominant-baseline="text-before-edge">inspection</text></g><g stroke-linecap="round"><g transform="translate(1172.0455153232979 315.0728679250765) rotate(0 149.38041502807403 63.86543029945368)"><path d="M1.01 -1.08 C50.76 20.06, 249.22 106.16, 298.68 127.75 M0.08 0.97 C49.73 22.15, 248.67 107.35, 298.15 128.81" stroke="#1e1e1e" stroke-width="2" fill="none"></path></g></g><mask></mask><g transform="translate(1443.2959823608403 446.5288213094073) rotate(0 36.689453125 11.5)"><text x="0" y="0" font-family="Helvetica, Segoe UI Emoji" font-size="20px" fill="#1e1e1e" text-anchor="start" style="white-space: pre;" direction="ltr" dominant-baseline="text-before-edge">includes</text></g><g stroke-linecap="round" transform="translate(47.53236370426555 57.174825919100556) rotate(0 66.80380371162607 34.32120642086741)"><path d="M17.16 0 C44.46 -0.31, 73.54 2.55, 116.45 0 M17.16 0 C45.38 -0.24, 75.65 0.13, 116.45 0 M116.45 0 C129.08 1.54, 134.93 5.93, 133.61 17.16 M116.45 0 C125.64 0.11, 133.32 7.41, 133.61 17.16 M133.61 17.16 C132.8 29.17, 134.55 40.34, 133.61 51.48 M133.61 17.16 C133.24 25.41, 133.28 34.45, 133.61 51.48 M133.61 51.48 C134.11 61.65, 128.27 67.8, 116.45 68.64 M133.61 51.48 C132.25 63.8, 130.11 66.57, 116.45 68.64 M116.45 68.64 C95.07 66.23, 70.58 68.14, 17.16 68.64 M116.45 68.64 C96.06 68.79, 73.97 69.78, 17.16 68.64 M17.16 68.64 C6.41 68.09, 0.59 63.73, 0 51.48 M17.16 68.64 C3.42 66.73, 1.38 62.52, 0 51.48 M0 51.48 C0.35 40.26, -1.31 29.33, 0 17.16 M0 51.48 C1.01 44.08, 0.77 34.9, 0 17.16 M0 17.16 C-0.83 6.54, 5.98 -1.3, 17.16 0 M0 17.16 C1.88 6.86, 5.87 0.94, 17.16 0" stroke="#1e1e1e" stroke-width="2" fill="none"></path></g><g transform="translate(61.39621075085256 78.99603233996797) rotate(0 52.93995666503906 12.5)"><text x="52.93995666503906" y="0" font-family="Virgil, Segoe UI Emoji" font-size="20px" fill="#1e1e1e" text-anchor="middle" style="white-space: pre;" direction="ltr" dominant-baseline="text-before-edge">Junzhe Wei</text></g></svg>